<svg width="1920" height="1542" viewBox="0 0 1920 1542" fill="none" xmlns="http://www.w3.org/2000/svg">
<path fill-rule="evenodd" clip-rule="evenodd" d="M1391.62 604.852L1428.83 673.943C1429.72 675.592 1428.06 677.447 1426.32 676.744L1354.15 647.533C1352.75 646.965 1351.25 648.098 1351.41 649.6L1366.42 789.391C1366.66 791.574 1363.71 792.486 1362.67 790.549L1296.7 667.475C1296 666.174 1294.19 666.051 1293.32 667.244L1256.56 717.861C1255.56 719.246 1253.39 718.813 1253 717.149L1238.39 655.467C1238.07 654.113 1236.5 653.492 1235.34 654.26L1140.85 716.852C1139.1 718.01 1136.98 716.043 1138 714.213L1191.09 618.844C1173.95 622.303 1155.9 625.295 1137.07 627.811L1003.95 661.174C1001.69 661.738 1000.45 658.658 1002.46 657.5L1039.24 636.334C897.63 642.791 732.576 627.172 592.429 588.121C333.99 516.111 257.615 280.488 257.615 280.488L454.382 300.748L485.271 0.00390625C519.889 99.4707 622.684 329.174 810.734 443.295C944.881 524.703 1066.17 553.639 1154.93 544.842L1106.73 515.188C1105.13 514.205 1105.64 511.764 1107.5 511.504L1184.73 500.652C1186.22 500.442 1186.96 498.711 1186.06 497.492L1109.84 393.225C1108.57 391.481 1110.58 389.234 1112.45 390.311L1224.42 454.693C1225.73 455.447 1227.37 454.531 1227.41 453.02L1229.77 375.066C1229.82 373.193 1232.2 372.42 1233.35 373.899L1281.4 435.697C1282.26 436.799 1283.95 436.707 1284.68 435.52L1363.99 306.748C1365.15 304.856 1368.07 305.988 1367.65 308.17L1341.43 445.822C1341.11 447.479 1342.86 448.758 1344.34 447.955L1412.21 411.215C1413.86 410.32 1415.72 411.988 1415.02 413.727L1385.44 486.348C1384.9 487.664 1385.87 489.104 1387.29 489.102L1485.02 489.002C1487.03 489 1487.78 491.633 1486.08 492.699L1406.4 542.488C1404.92 543.414 1405.25 545.66 1406.94 546.115L1514.08 574.988C1516.13 575.541 1516.02 578.486 1513.93 578.885L1393.01 601.94C1391.68 602.193 1390.98 603.662 1391.62 604.852Z" fill="white"/>
<path fill-rule="evenodd" clip-rule="evenodd" d="M1338.69 1392.57L1329.61 1413.38C1328.86 1415.09 1330.66 1416.8 1332.33 1415.97L1352.12 1406.12C1353.46 1405.45 1355.04 1406.45 1355.01 1407.96L1354.06 1449.52C1354 1451.71 1357.02 1452.38 1357.89 1450.36L1374.15 1412.88C1374.77 1411.46 1376.69 1411.24 1377.6 1412.49L1390.72 1430.33C1391.84 1431.84 1394.23 1431.12 1394.33 1429.25L1395.47 1407.4C1395.55 1405.84 1397.3 1404.97 1398.59 1405.85L1438.53 1432.92C1440.4 1434.19 1442.61 1431.87 1441.25 1430.06L1412.18 1391.55C1411.24 1390.31 1412.02 1388.52 1413.57 1388.36L1417.14 1387.99C1472.94 1396.49 1555 1388.26 1623.65 1363.32C1713.58 1330.65 1733.71 1244.6 1733.71 1244.6L1664.21 1257.15L1644.16 1150.79C1634.82 1187.18 1605.09 1271.84 1541.51 1317.61C1496.19 1350.23 1453.88 1363.84 1421.99 1363.13L1435.34 1353.39C1436.85 1352.29 1436.15 1349.9 1434.29 1349.78L1412.09 1348.37C1410.59 1348.27 1409.73 1346.61 1410.52 1345.33L1430.3 1313.03C1431.43 1311.19 1429.25 1309.12 1427.46 1310.33L1396.21 1331.72C1394.96 1332.58 1393.26 1331.8 1393.09 1330.3L1390.56 1308.21C1390.34 1306.35 1387.92 1305.78 1386.9 1307.35L1374.59 1326.15C1373.83 1327.31 1372.13 1327.36 1371.31 1326.24L1344.44 1289.65C1343.12 1287.86 1340.3 1289.23 1340.9 1291.37L1351.75 1330.3C1352.21 1331.93 1350.56 1333.35 1349.01 1332.66L1329.54 1323.99C1327.82 1323.23 1326.09 1325.04 1326.94 1326.72L1337.15 1346.85C1337.79 1348.12 1336.94 1349.64 1335.52 1349.75L1307.12 1351.88C1305.12 1352.03 1304.56 1354.71 1306.35 1355.64L1329.62 1367.79C1331.17 1368.59 1331.01 1370.86 1329.37 1371.44L1300.11 1381.79C1298.11 1382.5 1298.45 1385.42 1300.56 1385.66L1337.08 1389.78C1338.42 1389.93 1339.22 1391.34 1338.69 1392.57Z" fill="white"/>
<path fill-rule="evenodd" clip-rule="evenodd" d="M303.87 804.582L296.75 792.852C296.02 791.652 296.72 790.102 298.09 789.852L319.75 785.852C321.85 785.462 321.97 782.512 319.91 781.952L301.77 777.082C300.09 776.632 299.75 774.402 301.21 773.462L313.52 765.612C315.2 764.542 314.45 761.942 312.45 761.932L294.63 761.832C293.26 761.822 292.3 760.472 292.75 759.172L297.15 746.482C297.75 744.752 295.9 743.192 294.3 744.082L283.22 750.152C281.85 750.902 280.18 749.862 280.27 748.292L281.56 723.762C281.68 721.582 278.71 720.822 277.76 722.792L266.59 745.992C265.96 747.292 264.2 747.522 263.26 746.412L254.31 735.832C253.08 734.382 250.72 735.302 250.78 737.192L251.22 749.762C251.28 751.322 249.61 752.342 248.25 751.582L224.57 738.442C222.6 737.352 220.61 739.822 222.09 741.512L239.62 761.472C240.67 762.672 239.96 764.562 238.38 764.772L226.11 766.412C224.22 766.662 223.72 769.152 225.35 770.112L237.45 777.272C238.65 777.992 238.77 779.682 237.69 780.552L227.55 788.722C226.11 789.892 226.89 792.222 228.74 792.282L242.47 792.732C243.9 792.782 244.82 794.272 244.23 795.572L233.49 818.892C232.59 820.862 235.03 822.662 236.64 821.212L254.65 805.092C255.8 804.062 257.63 804.672 257.94 806.182L260.59 819.182C260.96 821.002 263.39 821.382 264.3 819.762L270.39 808.882C271.14 807.542 273.05 807.512 273.84 808.822L287.19 830.892C288.34 832.782 291.26 831.692 290.88 829.512L286.59 804.872C286.32 803.332 287.84 802.092 289.29 802.662L301.43 807.482C303.21 808.192 304.87 806.222 303.87 804.582Z" fill="white"/>
</svg>
