<svg width="1949" height="1293" viewBox="0 0 1949 1293" fill="none" xmlns="http://www.w3.org/2000/svg">
<g opacity="0.04">
<path d="M181.678 104.524L174.02 96.9347C173.228 96.1497 173.228 94.8412 174.02 94.0562L212.311 55.8496L221.553 65.0087L181.678 104.524Z" fill="white"/>
<path d="M177.45 81.2318L169.791 73.6429C168.999 72.8578 168.999 71.5493 169.791 70.7643L198.575 41.9785L207.818 51.1376L177.45 81.2318Z" fill="white"/>
<path d="M172.961 58.2075L165.303 50.6185C164.511 49.8335 164.511 48.525 165.303 47.74L184.58 28.375L193.823 37.5341L172.961 58.2075Z" fill="white"/>
<path d="M180.356 1.15671C177.979 -0.15173 174.81 0.371647 173.226 2.46516L168.473 8.74568C181.94 18.4282 198.313 23.9236 216.27 23.9236C219.703 23.9236 226.305 23.4002 226.833 23.1386C226.833 23.6619 226.041 30.2042 226.041 33.6061C226.041 51.1392 231.586 67.3639 241.357 80.7101L247.695 76.2614C250.071 74.6912 250.599 71.2893 249.015 68.9341C242.677 58.7282 238.98 46.4289 238.98 33.6061C238.98 28.3723 240.565 19.9983 241.621 15.2879C242.149 13.1944 241.357 11.3626 240.036 9.79244C238.716 8.484 236.603 7.69893 234.491 8.22231C230.002 9.26906 221.287 10.8392 216.006 10.8392C203.066 11.1009 190.919 7.43724 180.356 1.15671Z" fill="white"/>
<path d="M181.678 782.594L174.02 775.005C173.228 774.22 173.228 772.912 174.02 772.126L212.311 733.92L221.553 743.079L181.678 782.594Z" fill="white"/>
<path d="M177.45 759.304L169.791 751.715C168.999 750.93 168.999 749.622 169.791 748.837L198.575 720.051L207.818 729.21L177.45 759.304Z" fill="white"/>
<path d="M172.961 736.274L165.303 728.685C164.511 727.9 164.511 726.591 165.303 725.806L184.58 706.441L193.823 715.601L172.961 736.274Z" fill="white"/>
<path d="M180.356 679.229C177.979 677.921 174.81 678.444 173.226 680.537L168.473 686.818C181.94 696.5 198.313 701.996 216.27 701.996C219.703 701.996 226.305 701.473 226.833 701.211C226.833 701.734 226.041 708.276 226.041 711.678C226.041 729.212 231.586 745.436 241.357 758.782L247.695 754.334C250.071 752.763 250.599 749.362 249.015 747.006C242.677 736.8 238.98 724.501 238.98 711.678C238.98 706.445 240.565 698.071 241.621 693.36C242.149 691.267 241.357 689.435 240.036 687.865C238.716 686.556 236.603 685.771 234.491 686.295C230.002 687.341 221.287 688.911 216.006 688.911C203.066 689.173 190.919 685.51 180.356 679.229Z" fill="white"/>
<path d="M181.678 443.819L174.02 436.23C173.228 435.445 173.228 434.136 174.02 433.351L212.311 395.145L221.553 404.304L181.678 443.819Z" fill="white"/>
<path d="M177.45 420.531L169.791 412.942C168.999 412.157 168.999 410.848 169.791 410.063L198.575 381.277L207.818 390.436L177.45 420.531Z" fill="white"/>
<path d="M172.961 397.5L165.303 389.912C164.511 389.126 164.511 387.818 165.303 387.033L184.58 367.668L193.823 376.827L172.961 397.5Z" fill="white"/>
<path d="M180.356 340.452C177.979 339.143 174.81 339.667 173.226 341.76L168.473 348.041C181.94 357.723 198.313 363.219 216.27 363.219C219.703 363.219 226.305 362.695 226.833 362.433C226.833 362.957 226.041 369.499 226.041 372.901C226.041 390.434 231.586 406.659 241.357 420.005L247.695 415.556C250.071 413.986 250.599 410.584 249.015 408.229C242.677 398.023 238.98 385.724 238.98 372.901C238.98 367.667 240.565 359.293 241.621 354.583C242.149 352.489 241.357 350.657 240.036 349.087C238.716 347.779 236.603 346.994 234.491 347.517C230.002 348.564 221.287 350.134 216.006 350.134C203.066 350.396 190.919 346.732 180.356 340.452Z" fill="white"/>
<path d="M181.678 1121.89L174.02 1114.3C173.228 1113.52 173.228 1112.21 174.02 1111.42L212.311 1073.22L221.553 1082.38L181.678 1121.89Z" fill="white"/>
<path d="M177.45 1098.6L169.791 1091.01C168.999 1090.23 168.999 1088.92 169.791 1088.14L198.575 1059.35L207.818 1068.51L177.45 1098.6Z" fill="white"/>
<path d="M172.961 1075.57L165.303 1067.98C164.511 1067.2 164.511 1065.89 165.303 1065.1L184.58 1045.74L193.823 1054.9L172.961 1075.57Z" fill="white"/>
<path d="M180.356 1018.52C177.979 1017.22 174.81 1017.74 173.226 1019.83L168.473 1026.11C181.94 1035.8 198.313 1041.29 216.27 1041.29C219.703 1041.29 226.305 1040.77 226.833 1040.51C226.833 1041.03 226.041 1047.57 226.041 1050.97C226.041 1068.51 231.586 1084.73 241.357 1098.08L247.695 1093.63C250.071 1092.06 250.599 1088.66 249.015 1086.3C242.677 1076.1 238.98 1063.8 238.98 1050.97C238.98 1045.74 240.565 1037.37 241.621 1032.66C242.149 1030.56 241.357 1028.73 240.036 1027.16C238.716 1025.85 236.603 1025.07 234.491 1025.59C230.002 1026.64 221.287 1028.21 216.006 1028.21C203.066 1028.47 190.919 1024.8 180.356 1018.52Z" fill="white"/>
<path d="M18.4183 274.17L10.7602 266.581C9.96796 265.796 9.96796 264.488 10.7602 263.703L49.0508 225.496L58.2933 234.655L18.4183 274.17Z" fill="white"/>
<path d="M14.1917 250.88L6.53362 243.291C5.7414 242.506 5.7414 241.198 6.53362 240.413L35.3176 211.627L44.5601 220.786L14.1917 250.88Z" fill="white"/>
<path d="M9.70345 227.85L2.04534 220.261C1.25312 219.476 1.25312 218.168 2.04534 217.383L21.3227 198.018L30.5652 207.177L9.70345 227.85Z" fill="white"/>
<path d="M17.0962 170.807C14.7195 169.499 11.5506 170.022 9.9662 172.116L5.21289 178.396C18.6806 188.079 35.0531 193.574 53.0101 193.574C56.4431 193.574 63.0449 193.051 63.573 192.789C63.573 193.312 62.7808 199.855 62.7808 203.256C62.7808 220.79 68.3263 237.014 78.097 250.36L84.4348 245.912C86.8114 244.342 87.3396 240.94 85.7551 238.584C79.4174 228.379 75.7204 216.079 75.7204 203.256C75.7204 198.023 77.3048 189.649 78.3611 184.938C78.8893 182.845 78.097 181.013 76.7767 179.443C75.4563 178.134 73.3437 177.349 71.2311 177.873C66.7419 178.919 58.0275 180.49 52.746 180.49C39.8065 180.751 27.6591 177.088 17.0962 170.807Z" fill="white"/>
<path d="M18.4183 952.242L10.7602 944.653C9.96796 943.868 9.96796 942.56 10.7602 941.775L49.0508 903.568L58.2933 912.727L18.4183 952.242Z" fill="white"/>
<path d="M14.1917 928.954L6.53362 921.366C5.7414 920.58 5.7414 919.272 6.53362 918.487L35.3176 889.701L44.5601 898.86L14.1917 928.954Z" fill="white"/>
<path d="M9.70345 905.92L2.04534 898.331C1.25312 897.546 1.25312 896.238 2.04534 895.453L21.3227 876.088L30.5652 885.247L9.70345 905.92Z" fill="white"/>
<path d="M17.0962 848.872C14.7195 847.563 11.5506 848.086 9.9662 850.18L5.21289 856.461C18.6806 866.143 35.0531 871.638 53.0101 871.638C56.4431 871.638 63.0449 871.115 63.573 870.853C63.573 871.377 62.7808 877.919 62.7808 881.321C62.7808 898.854 68.3263 915.079 78.097 928.425L84.4348 923.976C86.8114 922.406 87.3396 919.004 85.7551 916.649C79.4174 906.443 75.7204 894.144 75.7204 881.321C75.7204 876.087 77.3048 867.713 78.3611 863.003C78.8893 860.909 78.097 859.077 76.7767 857.507C75.4563 856.199 73.3437 855.414 71.2311 855.937C66.7419 856.984 58.0275 858.554 52.746 858.554C39.8065 858.816 27.6591 855.152 17.0962 848.872Z" fill="white"/>
<path d="M18.4183 613.469L10.7602 605.88C9.96796 605.095 9.96796 603.787 10.7602 603.001L49.0508 564.795L58.2933 573.954L18.4183 613.469Z" fill="white"/>
<path d="M14.1917 590.181L6.53362 582.592C5.7414 581.807 5.7414 580.499 6.53362 579.713L35.3176 550.928L44.5601 560.087L14.1917 590.181Z" fill="white"/>
<path d="M9.70345 567.149L2.04534 559.56C1.25312 558.775 1.25312 557.466 2.04534 556.681L21.3227 537.316L30.5652 546.476L9.70345 567.149Z" fill="white"/>
<path d="M17.0962 510.104C14.7195 508.796 11.5506 509.319 9.9662 511.412L5.21289 517.693C18.6806 527.375 35.0531 532.871 53.0101 532.871C56.4431 532.871 63.0449 532.348 63.573 532.086C63.573 532.609 62.7808 539.151 62.7808 542.553C62.7808 560.087 68.3263 576.311 78.097 589.657L84.4348 585.209C86.8114 583.638 87.3396 580.237 85.7551 577.881C79.4174 567.675 75.7204 555.376 75.7204 542.553C75.7204 537.32 77.3048 528.946 78.3611 524.235C78.8893 522.142 78.097 520.31 76.7767 518.74C75.4563 517.431 73.3437 516.646 71.2311 517.17C66.7419 518.216 58.0275 519.786 52.746 519.786C39.8065 520.048 27.6591 516.385 17.0962 510.104Z" fill="white"/>
<path d="M18.4183 1291.54L10.7602 1283.95C9.96796 1283.16 9.96796 1281.85 10.7602 1281.07L49.0508 1242.86L58.2933 1252.02L18.4183 1291.54Z" fill="white"/>
<path d="M14.1917 1268.25L6.53362 1260.66C5.7414 1259.87 5.7414 1258.56 6.53362 1257.78L35.3176 1228.99L44.5601 1238.15L14.1917 1268.25Z" fill="white"/>
<path d="M9.70345 1245.22L2.04534 1237.63C1.25312 1236.84 1.25312 1235.53 2.04534 1234.75L21.3227 1215.38L30.5652 1224.54L9.70345 1245.22Z" fill="white"/>
<path d="M17.0962 1188.17C14.7195 1186.86 11.5506 1187.39 9.9662 1189.48L5.21289 1195.76C18.6806 1205.44 35.0531 1210.94 53.0101 1210.94C56.4431 1210.94 63.0449 1210.41 63.573 1210.15C63.573 1210.68 62.7808 1217.22 62.7808 1220.62C62.7808 1238.15 68.3263 1254.38 78.097 1267.72L84.4348 1263.28C86.8114 1261.7 87.3396 1258.3 85.7551 1255.95C79.4174 1245.74 75.7204 1233.44 75.7204 1220.62C75.7204 1215.39 77.3048 1207.01 78.3611 1202.3C78.8893 1200.21 78.097 1198.38 76.7767 1196.81C75.4563 1195.5 73.3437 1194.71 71.2311 1195.24C66.7419 1196.28 58.0275 1197.85 52.746 1197.85C39.8065 1198.11 27.6591 1194.45 17.0962 1188.17Z" fill="white"/>
<path d="M802.496 104.524L794.838 96.9347C794.046 96.1497 794.046 94.8412 794.838 94.0562L833.129 55.8496L842.371 65.0087L802.496 104.524Z" fill="white"/>
<path d="M798.272 81.2318L790.614 73.6429C789.821 72.8578 789.821 71.5493 790.614 70.7643L819.398 41.9785L828.64 51.1376L798.272 81.2318Z" fill="white"/>
<path d="M793.78 58.2075L786.122 50.6185C785.329 49.8335 785.329 48.525 786.122 47.74L805.399 28.375L814.641 37.5341L793.78 58.2075Z" fill="white"/>
<path d="M801.172 1.15671C798.796 -0.15173 795.627 0.371647 794.042 2.46516L789.289 8.74568C802.757 18.4282 819.129 23.9236 837.086 23.9236C840.519 23.9236 847.121 23.4002 847.649 23.1386C847.649 23.6619 846.857 30.2042 846.857 33.6061C846.857 51.1392 852.403 67.3639 862.173 80.7101L868.511 76.2614C870.888 74.6912 871.416 71.2893 869.831 68.9341C863.494 58.7282 859.797 46.4289 859.797 33.6061C859.797 28.3723 861.381 19.9983 862.437 15.2879C862.965 13.1944 862.173 11.3626 860.853 9.79244C859.532 8.484 857.42 7.69893 855.307 8.22231C850.818 9.26906 842.104 10.8392 836.822 10.8392C823.883 11.1009 811.735 7.43724 801.172 1.15671Z" fill="white"/>
<path d="M802.496 782.594L794.838 775.005C794.046 774.22 794.046 772.912 794.838 772.126L833.129 733.92L842.371 743.079L802.496 782.594Z" fill="white"/>
<path d="M798.272 759.304L790.614 751.715C789.821 750.93 789.821 749.622 790.614 748.837L819.398 720.051L828.64 729.21L798.272 759.304Z" fill="white"/>
<path d="M793.78 736.274L786.122 728.685C785.329 727.9 785.329 726.591 786.122 725.806L805.399 706.441L814.641 715.601L793.78 736.274Z" fill="white"/>
<path d="M801.172 679.229C798.796 677.921 795.627 678.444 794.042 680.537L789.289 686.818C802.757 696.5 819.129 701.996 837.086 701.996C840.519 701.996 847.121 701.473 847.649 701.211C847.649 701.734 846.857 708.276 846.857 711.678C846.857 729.212 852.403 745.436 862.173 758.782L868.511 754.334C870.888 752.763 871.416 749.362 869.831 747.006C863.494 736.8 859.797 724.501 859.797 711.678C859.797 706.445 861.381 698.071 862.437 693.36C862.965 691.267 862.173 689.435 860.853 687.865C859.532 686.556 857.42 685.771 855.307 686.295C850.818 687.341 842.104 688.911 836.822 688.911C823.883 689.173 811.735 685.51 801.172 679.229Z" fill="white"/>
<path d="M802.496 443.819L794.838 436.23C794.046 435.445 794.046 434.136 794.838 433.351L833.129 395.145L842.371 404.304L802.496 443.819Z" fill="white"/>
<path d="M798.272 420.531L790.614 412.942C789.821 412.157 789.821 410.848 790.614 410.063L819.398 381.277L828.64 390.436L798.272 420.531Z" fill="white"/>
<path d="M793.78 397.5L786.122 389.912C785.329 389.126 785.329 387.818 786.122 387.033L805.399 367.668L814.641 376.827L793.78 397.5Z" fill="white"/>
<path d="M801.172 340.452C798.796 339.143 795.627 339.667 794.042 341.76L789.289 348.041C802.757 357.723 819.129 363.219 837.086 363.219C840.519 363.219 847.121 362.695 847.649 362.433C847.649 362.957 846.857 369.499 846.857 372.901C846.857 390.434 852.403 406.659 862.173 420.005L868.511 415.556C870.888 413.986 871.416 410.584 869.831 408.229C863.494 398.023 859.797 385.724 859.797 372.901C859.797 367.667 861.381 359.293 862.437 354.583C862.965 352.489 862.173 350.657 860.853 349.087C859.532 347.779 857.42 346.994 855.307 347.517C850.818 348.564 842.104 350.134 836.822 350.134C823.883 350.396 811.735 346.732 801.172 340.452Z" fill="white"/>
<path d="M802.496 1121.89L794.838 1114.3C794.046 1113.52 794.046 1112.21 794.838 1111.42L833.129 1073.22L842.371 1082.38L802.496 1121.89Z" fill="white"/>
<path d="M798.272 1098.6L790.614 1091.01C789.821 1090.23 789.821 1088.92 790.614 1088.14L819.398 1059.35L828.64 1068.51L798.272 1098.6Z" fill="white"/>
<path d="M793.78 1075.57L786.122 1067.98C785.329 1067.2 785.329 1065.89 786.122 1065.1L805.399 1045.74L814.641 1054.9L793.78 1075.57Z" fill="white"/>
<path d="M801.172 1018.52C798.796 1017.22 795.627 1017.74 794.042 1019.83L789.289 1026.11C802.757 1035.8 819.129 1041.29 837.086 1041.29C840.519 1041.29 847.121 1040.77 847.649 1040.51C847.649 1041.03 846.857 1047.57 846.857 1050.97C846.857 1068.51 852.403 1084.73 862.173 1098.08L868.511 1093.63C870.888 1092.06 871.416 1088.66 869.831 1086.3C863.494 1076.1 859.797 1063.8 859.797 1050.97C859.797 1045.74 861.381 1037.37 862.437 1032.66C862.965 1030.56 862.173 1028.73 860.853 1027.16C859.532 1025.85 857.42 1025.07 855.307 1025.59C850.818 1026.64 842.104 1028.21 836.822 1028.21C823.883 1028.47 811.735 1024.8 801.172 1018.52Z" fill="white"/>
<path d="M639.237 274.17L631.579 266.581C630.786 265.796 630.786 264.488 631.579 263.703L669.869 225.496L679.112 234.655L639.237 274.17Z" fill="white"/>
<path d="M635.01 250.88L627.352 243.291C626.56 242.506 626.56 241.198 627.352 240.413L656.136 211.627L665.378 220.786L635.01 250.88Z" fill="white"/>
<path d="M630.524 227.85L622.866 220.261C622.073 219.476 622.073 218.168 622.866 217.383L642.143 198.018L651.386 207.177L630.524 227.85Z" fill="white"/>
<path d="M637.915 170.807C635.538 169.499 632.369 170.022 630.785 172.116L626.031 178.396C639.499 188.079 655.871 193.574 673.828 193.574C677.261 193.574 683.863 193.051 684.391 192.789C684.391 193.312 683.599 199.855 683.599 203.256C683.599 220.79 689.145 237.014 698.915 250.36L705.253 245.912C707.63 244.342 708.158 240.94 706.574 238.584C700.236 228.379 696.539 216.079 696.539 203.256C696.539 198.023 698.123 189.649 699.179 184.938C699.708 182.845 698.915 181.013 697.595 179.443C696.275 178.134 694.162 177.349 692.049 177.873C687.56 178.919 678.846 180.49 673.564 180.49C660.625 180.751 648.477 177.088 637.915 170.807Z" fill="white"/>
<path d="M639.237 952.242L631.579 944.653C630.786 943.868 630.786 942.56 631.579 941.775L669.869 903.568L679.112 912.727L639.237 952.242Z" fill="white"/>
<path d="M635.012 928.954L627.354 921.366C626.562 920.58 626.562 919.272 627.354 918.487L656.138 889.701L665.38 898.86L635.012 928.954Z" fill="white"/>
<path d="M630.524 905.92L622.866 898.331C622.073 897.546 622.073 896.238 622.866 895.453L642.143 876.088L651.386 885.247L630.524 905.92Z" fill="white"/>
<path d="M637.915 848.872C635.538 847.563 632.369 848.086 630.785 850.18L626.031 856.461C639.499 866.143 655.871 871.638 673.828 871.638C677.261 871.638 683.863 871.115 684.391 870.853C684.391 871.377 683.599 877.919 683.599 881.321C683.599 898.854 689.145 915.079 698.915 928.425L705.253 923.976C707.63 922.406 708.158 919.004 706.574 916.649C700.236 906.443 696.539 894.144 696.539 881.321C696.539 876.087 698.123 867.713 699.179 863.003C699.708 860.909 698.915 859.077 697.595 857.507C696.275 856.199 694.162 855.414 692.049 855.937C687.56 856.984 678.846 858.554 673.564 858.554C660.625 858.816 648.477 855.152 637.915 848.872Z" fill="white"/>
<path d="M639.237 613.469L631.579 605.88C630.786 605.095 630.786 603.787 631.579 603.001L669.869 564.795L679.112 573.954L639.237 613.469Z" fill="white"/>
<path d="M635.01 590.181L627.352 582.592C626.56 581.807 626.56 580.499 627.352 579.713L656.136 550.928L665.378 560.087L635.01 590.181Z" fill="white"/>
<path d="M630.524 567.149L622.866 559.56C622.073 558.775 622.073 557.466 622.866 556.681L642.143 537.316L651.386 546.476L630.524 567.149Z" fill="white"/>
<path d="M637.915 510.104C635.538 508.796 632.369 509.319 630.785 511.412L626.031 517.693C639.499 527.375 655.871 532.871 673.828 532.871C677.261 532.871 683.863 532.348 684.391 532.086C684.391 532.609 683.599 539.151 683.599 542.553C683.599 560.087 689.145 576.311 698.915 589.657L705.253 585.209C707.63 583.638 708.158 580.237 706.574 577.881C700.236 567.675 696.539 555.376 696.539 542.553C696.539 537.32 698.123 528.946 699.179 524.235C699.708 522.142 698.915 520.31 697.595 518.74C696.275 517.431 694.162 516.646 692.049 517.17C687.56 518.216 678.846 519.786 673.564 519.786C660.625 520.048 648.477 516.385 637.915 510.104Z" fill="white"/>
<path d="M639.237 1291.54L631.579 1283.95C630.786 1283.16 630.786 1281.85 631.579 1281.07L669.869 1242.86L679.112 1252.02L639.237 1291.54Z" fill="white"/>
<path d="M635.01 1268.25L627.352 1260.66C626.56 1259.87 626.56 1258.56 627.352 1257.78L656.136 1228.99L665.378 1238.15L635.01 1268.25Z" fill="white"/>
<path d="M630.524 1245.22L622.866 1237.63C622.073 1236.84 622.073 1235.53 622.866 1234.75L642.143 1215.38L651.386 1224.54L630.524 1245.22Z" fill="white"/>
<path d="M637.915 1188.17C635.538 1186.86 632.369 1187.39 630.785 1189.48L626.031 1195.76C639.499 1205.44 655.871 1210.94 673.828 1210.94C677.261 1210.94 683.863 1210.41 684.391 1210.15C684.391 1210.68 683.599 1217.22 683.599 1220.62C683.599 1238.15 689.145 1254.38 698.915 1267.72L705.253 1263.28C707.63 1261.7 708.158 1258.3 706.574 1255.95C700.236 1245.74 696.539 1233.44 696.539 1220.62C696.539 1215.39 698.123 1207.01 699.179 1202.3C699.708 1200.21 698.915 1198.38 697.595 1196.81C696.275 1195.5 694.162 1194.71 692.049 1195.24C687.56 1196.28 678.846 1197.85 673.564 1197.85C660.625 1198.11 648.477 1194.45 637.915 1188.17Z" fill="white"/>
<path d="M1422.8 104.524L1415.14 96.9347C1414.35 96.1497 1414.35 94.8412 1415.14 94.0562L1453.43 55.8496L1462.68 65.0087L1422.8 104.524Z" fill="white"/>
<path d="M1418.58 81.2318L1410.92 73.6429C1410.13 72.8578 1410.13 71.5493 1410.92 70.7643L1439.7 41.9785L1448.94 51.1376L1418.58 81.2318Z" fill="white"/>
<path d="M1414.09 58.2075L1406.43 50.6185C1405.64 49.8335 1405.64 48.525 1406.43 47.74L1425.71 28.375L1434.95 37.5341L1414.09 58.2075Z" fill="white"/>
<path d="M1421.48 1.15671C1419.1 -0.15173 1415.94 0.371647 1414.35 2.46516L1409.6 8.74568C1423.07 18.4282 1439.44 23.9236 1457.39 23.9236C1460.83 23.9236 1467.43 23.4002 1467.96 23.1386C1467.96 23.6619 1467.17 30.2042 1467.17 33.6061C1467.17 51.1392 1472.71 67.3639 1482.48 80.7101L1488.82 76.2614C1491.2 74.6912 1491.72 71.2893 1490.14 68.9341C1483.8 58.7282 1480.11 46.4289 1480.11 33.6061C1480.11 28.3723 1481.69 19.9983 1482.75 15.2879C1483.27 13.1944 1482.48 11.3626 1481.16 9.79244C1479.84 8.484 1477.73 7.69893 1475.62 8.22231C1471.13 9.26906 1462.41 10.8392 1457.13 10.8392C1444.19 11.1009 1432.04 7.43724 1421.48 1.15671Z" fill="white"/>
<path d="M1422.8 782.594L1415.14 775.005C1414.35 774.22 1414.35 772.912 1415.14 772.126L1453.43 733.92L1462.68 743.079L1422.8 782.594Z" fill="white"/>
<path d="M1418.58 759.304L1410.92 751.715C1410.13 750.93 1410.13 749.622 1410.92 748.837L1439.7 720.051L1448.94 729.21L1418.58 759.304Z" fill="white"/>
<path d="M1414.09 736.274L1406.43 728.685C1405.64 727.9 1405.64 726.591 1406.43 725.806L1425.71 706.441L1434.95 715.601L1414.09 736.274Z" fill="white"/>
<path d="M1421.48 679.229C1419.1 677.921 1415.94 678.444 1414.35 680.537L1409.6 686.818C1423.07 696.5 1439.44 701.996 1457.39 701.996C1460.83 701.996 1467.43 701.473 1467.96 701.211C1467.96 701.734 1467.17 708.276 1467.17 711.678C1467.17 729.212 1472.71 745.436 1482.48 758.782L1488.82 754.334C1491.2 752.763 1491.72 749.362 1490.14 747.006C1483.8 736.8 1480.11 724.501 1480.11 711.678C1480.11 706.445 1481.69 698.071 1482.75 693.36C1483.27 691.267 1482.48 689.435 1481.16 687.865C1479.84 686.556 1477.73 685.771 1475.62 686.295C1471.13 687.341 1462.41 688.911 1457.13 688.911C1444.19 689.173 1432.04 685.51 1421.48 679.229Z" fill="white"/>
<path d="M1422.8 443.819L1415.14 436.23C1414.35 435.445 1414.35 434.136 1415.14 433.351L1453.43 395.145L1462.68 404.304L1422.8 443.819Z" fill="white"/>
<path d="M1418.58 420.531L1410.92 412.942C1410.13 412.157 1410.13 410.848 1410.92 410.063L1439.7 381.277L1448.94 390.436L1418.58 420.531Z" fill="white"/>
<path d="M1414.09 397.5L1406.43 389.912C1405.64 389.126 1405.64 387.818 1406.43 387.033L1425.71 367.668L1434.95 376.827L1414.09 397.5Z" fill="white"/>
<path d="M1421.48 340.452C1419.1 339.143 1415.94 339.667 1414.35 341.76L1409.6 348.041C1423.07 357.723 1439.44 363.219 1457.39 363.219C1460.83 363.219 1467.43 362.695 1467.96 362.433C1467.96 362.957 1467.17 369.499 1467.17 372.901C1467.17 390.434 1472.71 406.659 1482.48 420.005L1488.82 415.556C1491.2 413.986 1491.72 410.584 1490.14 408.229C1483.8 398.023 1480.11 385.724 1480.11 372.901C1480.11 367.667 1481.69 359.293 1482.75 354.583C1483.27 352.489 1482.48 350.657 1481.16 349.087C1479.84 347.779 1477.73 346.994 1475.62 347.517C1471.13 348.564 1462.41 350.134 1457.13 350.134C1444.19 350.396 1432.04 346.732 1421.48 340.452Z" fill="white"/>
<path d="M1422.8 1121.89L1415.14 1114.3C1414.35 1113.52 1414.35 1112.21 1415.14 1111.42L1453.43 1073.22L1462.68 1082.38L1422.8 1121.89Z" fill="white"/>
<path d="M1418.58 1098.6L1410.92 1091.01C1410.13 1090.23 1410.13 1088.92 1410.92 1088.14L1439.7 1059.35L1448.94 1068.51L1418.58 1098.6Z" fill="white"/>
<path d="M1414.09 1075.57L1406.43 1067.98C1405.64 1067.2 1405.64 1065.89 1406.43 1065.1L1425.71 1045.74L1434.95 1054.9L1414.09 1075.57Z" fill="white"/>
<path d="M1421.48 1018.52C1419.1 1017.22 1415.94 1017.74 1414.35 1019.83L1409.6 1026.11C1423.07 1035.8 1439.44 1041.29 1457.39 1041.29C1460.83 1041.29 1467.43 1040.77 1467.96 1040.51C1467.96 1041.03 1467.17 1047.57 1467.17 1050.97C1467.17 1068.51 1472.71 1084.73 1482.48 1098.08L1488.82 1093.63C1491.2 1092.06 1491.72 1088.66 1490.14 1086.3C1483.8 1076.1 1480.11 1063.8 1480.11 1050.97C1480.11 1045.74 1481.69 1037.37 1482.75 1032.66C1483.27 1030.56 1482.48 1028.73 1481.16 1027.16C1479.84 1025.85 1477.73 1025.07 1475.62 1025.59C1471.13 1026.64 1462.41 1028.21 1457.13 1028.21C1444.19 1028.47 1432.04 1024.8 1421.48 1018.52Z" fill="white"/>
<path d="M1259.55 274.17L1251.89 266.581C1251.1 265.796 1251.1 264.488 1251.89 263.703L1290.18 225.496L1299.42 234.655L1259.55 274.17Z" fill="white"/>
<path d="M1255.32 250.88L1247.66 243.291C1246.87 242.506 1246.87 241.198 1247.66 240.413L1276.44 211.627L1285.69 220.786L1255.32 250.88Z" fill="white"/>
<path d="M1250.83 227.85L1243.17 220.261C1242.38 219.476 1242.38 218.168 1243.17 217.383L1262.45 198.018L1271.69 207.177L1250.83 227.85Z" fill="white"/>
<path d="M1258.22 170.807C1255.85 169.499 1252.68 170.022 1251.09 172.116L1246.34 178.396C1259.81 188.079 1276.18 193.574 1294.14 193.574C1297.57 193.574 1304.17 193.051 1304.7 192.789C1304.7 193.312 1303.91 199.855 1303.91 203.256C1303.91 220.79 1309.45 237.014 1319.22 250.36L1325.56 245.912C1327.94 244.342 1328.47 240.94 1326.88 238.584C1320.54 228.379 1316.85 216.079 1316.85 203.256C1316.85 198.023 1318.43 189.649 1319.49 184.938C1320.02 182.845 1319.22 181.013 1317.9 179.443C1316.58 178.134 1314.47 177.349 1312.36 177.873C1307.87 178.919 1299.15 180.49 1293.87 180.49C1280.93 180.751 1268.79 177.088 1258.22 170.807Z" fill="white"/>
<path d="M1259.55 952.242L1251.89 944.653C1251.1 943.868 1251.1 942.56 1251.89 941.775L1290.18 903.568L1299.42 912.727L1259.55 952.242Z" fill="white"/>
<path d="M1255.32 928.956L1247.66 921.367C1246.87 920.582 1246.87 919.274 1247.66 918.489L1276.44 889.703L1285.69 898.862L1255.32 928.956Z" fill="white"/>
<path d="M1250.83 905.92L1243.17 898.331C1242.38 897.546 1242.38 896.238 1243.17 895.453L1262.45 876.088L1271.69 885.247L1250.83 905.92Z" fill="white"/>
<path d="M1258.22 848.875C1255.85 847.567 1252.68 848.09 1251.09 850.184L1246.34 856.464C1259.81 866.147 1276.18 871.642 1294.14 871.642C1297.57 871.642 1304.17 871.119 1304.7 870.857C1304.7 871.381 1303.91 877.923 1303.91 881.325C1303.91 898.858 1309.45 915.083 1319.22 928.429L1325.56 923.98C1327.94 922.41 1328.47 919.008 1326.88 916.653C1320.54 906.447 1316.85 894.148 1316.85 881.325C1316.85 876.091 1318.43 867.717 1319.49 863.007C1320.02 860.913 1319.22 859.081 1317.9 857.511C1316.58 856.203 1314.47 855.418 1312.36 855.941C1307.87 856.988 1299.15 858.558 1293.87 858.558C1280.93 858.82 1268.79 855.156 1258.22 848.875Z" fill="white"/>
<path d="M1259.55 613.467L1251.89 605.878C1251.1 605.093 1251.1 603.785 1251.89 603L1290.18 564.793L1299.42 573.952L1259.55 613.467Z" fill="white"/>
<path d="M1255.32 590.179L1247.66 582.59C1246.87 581.805 1246.87 580.497 1247.66 579.712L1276.44 550.926L1285.69 560.085L1255.32 590.179Z" fill="white"/>
<path d="M1250.83 567.147L1243.17 559.558C1242.38 558.773 1242.38 557.464 1243.17 556.679L1262.45 537.314L1271.69 546.474L1250.83 567.147Z" fill="white"/>
<path d="M1258.22 510.1C1255.85 508.792 1252.68 509.315 1251.09 511.409L1246.34 517.689C1259.81 527.372 1276.18 532.867 1294.14 532.867C1297.57 532.867 1304.17 532.344 1304.7 532.082C1304.7 532.605 1303.91 539.148 1303.91 542.549C1303.91 560.083 1309.45 576.307 1319.22 589.653L1325.56 585.205C1327.94 583.635 1328.47 580.233 1326.88 577.877C1320.54 567.672 1316.85 555.372 1316.85 542.549C1316.85 537.316 1318.43 528.942 1319.49 524.231C1320.02 522.138 1319.22 520.306 1317.9 518.736C1316.58 517.427 1314.47 516.642 1312.36 517.166C1307.87 518.212 1299.15 519.783 1293.87 519.783C1280.93 520.044 1268.79 516.381 1258.22 510.1Z" fill="white"/>
<path d="M1259.55 1291.54L1251.89 1283.95C1251.1 1283.16 1251.1 1281.85 1251.89 1281.07L1290.18 1242.86L1299.42 1252.02L1259.55 1291.54Z" fill="white"/>
<path d="M1255.32 1268.25L1247.66 1260.66C1246.87 1259.87 1246.87 1258.56 1247.66 1257.78L1276.44 1228.99L1285.69 1238.15L1255.32 1268.25Z" fill="white"/>
<path d="M1250.83 1245.22L1243.17 1237.63C1242.38 1236.84 1242.38 1235.53 1243.17 1234.75L1262.45 1215.38L1271.69 1224.54L1250.83 1245.22Z" fill="white"/>
<path d="M1258.22 1188.17C1255.85 1186.86 1252.68 1187.39 1251.09 1189.48L1246.34 1195.76C1259.81 1205.44 1276.18 1210.94 1294.14 1210.94C1297.57 1210.94 1304.17 1210.41 1304.7 1210.15C1304.7 1210.68 1303.91 1217.22 1303.91 1220.62C1303.91 1238.15 1309.45 1254.38 1319.22 1267.72L1325.56 1263.28C1327.94 1261.7 1328.47 1258.3 1326.88 1255.95C1320.54 1245.74 1316.85 1233.44 1316.85 1220.62C1316.85 1215.39 1318.43 1207.01 1319.49 1202.3C1320.02 1200.21 1319.22 1198.38 1317.9 1196.81C1316.58 1195.5 1314.47 1194.71 1312.36 1195.24C1307.87 1196.28 1299.15 1197.85 1293.87 1197.85C1280.93 1198.11 1268.79 1194.45 1258.22 1188.17Z" fill="white"/>
<path d="M1879.85 274.17L1872.2 266.581C1871.4 265.796 1871.4 264.488 1872.2 263.703L1910.49 225.496L1919.73 234.655L1879.85 274.17Z" fill="white"/>
<path d="M1875.63 250.88L1867.97 243.291C1867.17 242.506 1867.17 241.198 1867.97 240.413L1896.75 211.627L1905.99 220.786L1875.63 250.88Z" fill="white"/>
<path d="M1871.14 227.85L1863.48 220.261C1862.68 219.476 1862.68 218.168 1863.48 217.383L1882.75 198.018L1892 207.177L1871.14 227.85Z" fill="white"/>
<path d="M1878.53 170.807C1876.16 169.499 1872.99 170.022 1871.4 172.116L1866.65 178.396C1880.12 188.079 1896.49 193.574 1914.45 193.574C1917.88 193.574 1924.48 193.051 1925.01 192.789C1925.01 193.312 1924.22 199.855 1924.22 203.256C1924.22 220.79 1929.76 237.014 1939.53 250.36L1945.87 245.912C1948.25 244.342 1948.78 240.94 1947.19 238.584C1940.85 228.379 1937.16 216.079 1937.16 203.256C1937.16 198.023 1938.74 189.649 1939.8 184.938C1940.32 182.845 1939.53 181.013 1938.21 179.443C1936.89 178.134 1934.78 177.349 1932.67 177.873C1928.18 178.919 1919.46 180.49 1914.18 180.49C1901.24 180.751 1889.09 177.088 1878.53 170.807Z" fill="white"/>
<path d="M1879.85 952.242L1872.2 944.653C1871.4 943.868 1871.4 942.56 1872.2 941.775L1910.49 903.568L1919.73 912.727L1879.85 952.242Z" fill="white"/>
<path d="M1875.63 928.956L1867.97 921.367C1867.17 920.582 1867.17 919.274 1867.97 918.489L1896.75 889.703L1905.99 898.862L1875.63 928.956Z" fill="white"/>
<path d="M1871.14 905.92L1863.48 898.331C1862.68 897.546 1862.68 896.238 1863.48 895.453L1882.75 876.088L1892 885.247L1871.14 905.92Z" fill="white"/>
<path d="M1878.53 848.875C1876.16 847.567 1872.99 848.09 1871.4 850.184L1866.65 856.464C1880.12 866.147 1896.49 871.642 1914.45 871.642C1917.88 871.642 1924.48 871.119 1925.01 870.857C1925.01 871.381 1924.22 877.923 1924.22 881.325C1924.22 898.858 1929.76 915.083 1939.53 928.429L1945.87 923.98C1948.25 922.41 1948.78 919.008 1947.19 916.653C1940.85 906.447 1937.16 894.148 1937.16 881.325C1937.16 876.091 1938.74 867.717 1939.8 863.007C1940.32 860.913 1939.53 859.081 1938.21 857.511C1936.89 856.203 1934.78 855.418 1932.67 855.941C1928.18 856.988 1919.46 858.558 1914.18 858.558C1901.24 858.82 1889.09 855.156 1878.53 848.875Z" fill="white"/>
<path d="M1879.85 613.469L1872.2 605.88C1871.4 605.095 1871.4 603.787 1872.2 603.001L1910.49 564.795L1919.73 573.954L1879.85 613.469Z" fill="white"/>
<path d="M1875.63 590.181L1867.97 582.592C1867.17 581.807 1867.17 580.499 1867.97 579.713L1896.75 550.928L1905.99 560.087L1875.63 590.181Z" fill="white"/>
<path d="M1871.14 567.149L1863.48 559.56C1862.68 558.775 1862.68 557.466 1863.48 556.681L1882.75 537.316L1892 546.476L1871.14 567.149Z" fill="white"/>
<path d="M1878.53 510.104C1876.16 508.796 1872.99 509.319 1871.4 511.412L1866.65 517.693C1880.12 527.375 1896.49 532.871 1914.45 532.871C1917.88 532.871 1924.48 532.348 1925.01 532.086C1925.01 532.609 1924.22 539.151 1924.22 542.553C1924.22 560.087 1929.76 576.311 1939.53 589.657L1945.87 585.209C1948.25 583.638 1948.78 580.237 1947.19 577.881C1940.85 567.675 1937.16 555.376 1937.16 542.553C1937.16 537.32 1938.74 528.946 1939.8 524.235C1940.32 522.142 1939.53 520.31 1938.21 518.74C1936.89 517.431 1934.78 516.646 1932.67 517.17C1928.18 518.216 1919.46 519.786 1914.18 519.786C1901.24 520.048 1889.09 516.385 1878.53 510.104Z" fill="white"/>
<path d="M1879.85 1291.54L1872.2 1283.95C1871.4 1283.16 1871.4 1281.85 1872.2 1281.07L1910.49 1242.86L1919.73 1252.02L1879.85 1291.54Z" fill="white"/>
<path d="M1875.63 1268.25L1867.97 1260.66C1867.17 1259.87 1867.17 1258.56 1867.97 1257.78L1896.75 1228.99L1905.99 1238.15L1875.63 1268.25Z" fill="white"/>
<path d="M1871.14 1245.22L1863.48 1237.63C1862.68 1236.84 1862.68 1235.53 1863.48 1234.75L1882.75 1215.38L1892 1224.54L1871.14 1245.22Z" fill="white"/>
<path d="M1878.53 1188.17C1876.16 1186.86 1872.99 1187.39 1871.4 1189.48L1866.65 1195.76C1880.12 1205.44 1896.49 1210.94 1914.45 1210.94C1917.88 1210.94 1924.48 1210.41 1925.01 1210.15C1925.01 1210.68 1924.22 1217.22 1924.22 1220.62C1924.22 1238.15 1929.76 1254.38 1939.53 1267.72L1945.87 1263.28C1948.25 1261.7 1948.78 1258.3 1947.19 1255.95C1940.85 1245.74 1937.16 1233.44 1937.16 1220.62C1937.16 1215.39 1938.74 1207.01 1939.8 1202.3C1940.32 1200.21 1939.53 1198.38 1938.21 1196.81C1936.89 1195.5 1934.78 1194.71 1932.67 1195.24C1928.18 1196.28 1919.46 1197.85 1914.18 1197.85C1901.24 1198.11 1889.09 1194.45 1878.53 1188.17Z" fill="white"/>
<path d="M492.086 104.524L484.428 96.9347C483.636 96.1497 483.636 94.8412 484.428 94.0562L522.719 55.8496L531.961 65.0087L492.086 104.524Z" fill="white"/>
<path d="M487.864 81.2318L480.205 73.6429C479.413 72.8578 479.413 71.5493 480.205 70.7643L508.989 41.9785L518.232 51.1376L487.864 81.2318Z" fill="white"/>
<path d="M483.373 58.2075L475.715 50.6185C474.923 49.8335 474.923 48.525 475.715 47.74L494.993 28.375L504.235 37.5341L483.373 58.2075Z" fill="white"/>
<path d="M490.764 1.15671C488.387 -0.15173 485.219 0.371647 483.634 2.46516L478.881 8.74568C492.349 18.4282 508.721 23.9236 526.678 23.9236C530.111 23.9236 536.713 23.4002 537.241 23.1386C537.241 23.6619 536.449 30.2042 536.449 33.6061C536.449 51.1392 541.994 67.3639 551.765 80.7101L558.103 76.2614C560.479 74.6912 561.008 71.2893 559.423 68.9341C553.085 58.7282 549.388 46.4289 549.388 33.6061C549.388 28.3723 550.973 19.9983 552.029 15.2879C552.557 13.1944 551.765 11.3626 550.445 9.79244C549.124 8.484 547.012 7.69893 544.899 8.22231C540.41 9.26906 531.695 10.8392 526.414 10.8392C513.474 11.1009 501.327 7.43724 490.764 1.15671Z" fill="white"/>
<path d="M492.086 782.594L484.428 775.005C483.636 774.22 483.636 772.912 484.428 772.126L522.719 733.92L531.961 743.079L492.086 782.594Z" fill="white"/>
<path d="M487.864 759.304L480.205 751.715C479.413 750.93 479.413 749.622 480.205 748.837L508.989 720.051L518.232 729.21L487.864 759.304Z" fill="white"/>
<path d="M483.373 736.274L475.715 728.685C474.923 727.9 474.923 726.591 475.715 725.806L494.993 706.441L504.235 715.601L483.373 736.274Z" fill="white"/>
<path d="M490.764 679.229C488.387 677.921 485.219 678.444 483.634 680.537L478.881 686.818C492.349 696.5 508.721 701.996 526.678 701.996C530.111 701.996 536.713 701.473 537.241 701.211C537.241 701.734 536.449 708.276 536.449 711.678C536.449 729.212 541.994 745.436 551.765 758.782L558.103 754.334C560.479 752.763 561.008 749.362 559.423 747.006C553.085 736.8 549.388 724.501 549.388 711.678C549.388 706.445 550.973 698.071 552.029 693.36C552.557 691.267 551.765 689.435 550.445 687.865C549.124 686.556 547.012 685.771 544.899 686.295C540.41 687.341 531.695 688.911 526.414 688.911C513.474 689.173 501.327 685.51 490.764 679.229Z" fill="white"/>
<path d="M492.086 443.819L484.428 436.23C483.636 435.445 483.636 434.136 484.428 433.351L522.719 395.145L531.961 404.304L492.086 443.819Z" fill="white"/>
<path d="M487.864 420.531L480.205 412.942C479.413 412.157 479.413 410.848 480.205 410.063L508.989 381.277L518.232 390.436L487.864 420.531Z" fill="white"/>
<path d="M483.373 397.5L475.715 389.912C474.923 389.126 474.923 387.818 475.715 387.033L494.993 367.668L504.235 376.827L483.373 397.5Z" fill="white"/>
<path d="M490.764 340.452C488.387 339.143 485.219 339.667 483.634 341.76L478.881 348.041C492.349 357.723 508.721 363.219 526.678 363.219C530.111 363.219 536.713 362.695 537.241 362.433C537.241 362.957 536.449 369.499 536.449 372.901C536.449 390.434 541.994 406.659 551.765 420.005L558.103 415.556C560.479 413.986 561.008 410.584 559.423 408.229C553.085 398.023 549.388 385.724 549.388 372.901C549.388 367.667 550.973 359.293 552.029 354.583C552.557 352.489 551.765 350.657 550.445 349.087C549.124 347.779 547.012 346.994 544.899 347.517C540.41 348.564 531.695 350.134 526.414 350.134C513.474 350.396 501.327 346.732 490.764 340.452Z" fill="white"/>
<path d="M492.086 1121.89L484.428 1114.3C483.636 1113.52 483.636 1112.21 484.428 1111.42L522.719 1073.22L531.961 1082.38L492.086 1121.89Z" fill="white"/>
<path d="M487.864 1098.6L480.205 1091.01C479.413 1090.23 479.413 1088.92 480.205 1088.14L508.989 1059.35L518.232 1068.51L487.864 1098.6Z" fill="white"/>
<path d="M483.373 1075.57L475.715 1067.98C474.923 1067.2 474.923 1065.89 475.715 1065.1L494.993 1045.74L504.235 1054.9L483.373 1075.57Z" fill="white"/>
<path d="M490.764 1018.52C488.387 1017.22 485.219 1017.74 483.634 1019.83L478.881 1026.11C492.349 1035.8 508.721 1041.29 526.678 1041.29C530.111 1041.29 536.713 1040.77 537.241 1040.51C537.241 1041.03 536.449 1047.57 536.449 1050.97C536.449 1068.51 541.994 1084.73 551.765 1098.08L558.103 1093.63C560.479 1092.06 561.008 1088.66 559.423 1086.3C553.085 1076.1 549.388 1063.8 549.388 1050.97C549.388 1045.74 550.973 1037.37 552.029 1032.66C552.557 1030.56 551.765 1028.73 550.445 1027.16C549.124 1025.85 547.012 1025.07 544.899 1025.59C540.41 1026.64 531.695 1028.21 526.414 1028.21C513.474 1028.47 501.327 1024.8 490.764 1018.52Z" fill="white"/>
<path d="M328.826 274.17L321.168 266.581C320.376 265.796 320.376 264.488 321.168 263.703L359.459 225.496L368.702 234.655L328.826 274.17Z" fill="white"/>
<path d="M324.606 250.88L316.948 243.291C316.155 242.506 316.155 241.198 316.948 240.413L345.732 211.627L354.974 220.786L324.606 250.88Z" fill="white"/>
<path d="M320.114 227.85L312.455 220.261C311.663 219.476 311.663 218.168 312.455 217.383L331.733 198.018L340.975 207.177L320.114 227.85Z" fill="white"/>
<path d="M327.504 170.807C325.128 169.499 321.959 170.022 320.374 172.116L315.621 178.396C329.089 188.079 345.461 193.574 363.418 193.574C366.851 193.574 373.453 193.051 373.981 192.789C373.981 193.312 373.189 199.855 373.189 203.256C373.189 220.79 378.735 237.014 388.505 250.36L394.843 245.912C397.22 244.342 397.748 240.94 396.163 238.584C389.826 228.379 386.129 216.079 386.129 203.256C386.129 198.023 387.713 189.649 388.769 184.938C389.297 182.845 388.505 181.013 387.185 179.443C385.865 178.134 383.752 177.349 381.639 177.873C377.15 178.919 368.436 180.49 363.154 180.49C350.215 180.751 338.067 177.088 327.504 170.807Z" fill="white"/>
<path d="M328.826 952.242L321.168 944.653C320.376 943.868 320.376 942.56 321.168 941.775L359.459 903.568L368.702 912.727L328.826 952.242Z" fill="white"/>
<path d="M324.606 928.954L316.948 921.366C316.155 920.58 316.155 919.272 316.948 918.487L345.732 889.701L354.974 898.86L324.606 928.954Z" fill="white"/>
<path d="M320.114 905.92L312.455 898.331C311.663 897.546 311.663 896.238 312.455 895.453L331.733 876.088L340.975 885.247L320.114 905.92Z" fill="white"/>
<path d="M327.504 848.872C325.128 847.563 321.959 848.086 320.374 850.18L315.621 856.461C329.089 866.143 345.461 871.638 363.418 871.638C366.851 871.638 373.453 871.115 373.981 870.853C373.981 871.377 373.189 877.919 373.189 881.321C373.189 898.854 378.735 915.079 388.505 928.425L394.843 923.976C397.22 922.406 397.748 919.004 396.163 916.649C389.826 906.443 386.129 894.144 386.129 881.321C386.129 876.087 387.713 867.713 388.769 863.003C389.297 860.909 388.505 859.077 387.185 857.507C385.865 856.199 383.752 855.414 381.639 855.937C377.15 856.984 368.436 858.554 363.154 858.554C350.215 858.816 338.067 855.152 327.504 848.872Z" fill="white"/>
<path d="M328.826 613.467L321.168 605.878C320.376 605.093 320.376 603.785 321.168 603L359.459 564.793L368.702 573.952L328.826 613.467Z" fill="white"/>
<path d="M324.606 590.179L316.948 582.59C316.155 581.805 316.155 580.497 316.948 579.712L345.732 550.926L354.974 560.085L324.606 590.179Z" fill="white"/>
<path d="M320.114 567.147L312.455 559.558C311.663 558.773 311.663 557.464 312.455 556.679L331.733 537.314L340.975 546.474L320.114 567.147Z" fill="white"/>
<path d="M327.504 510.098C325.128 508.79 321.959 509.313 320.374 511.407L315.621 517.687C329.089 527.37 345.461 532.865 363.418 532.865C366.851 532.865 373.453 532.342 373.981 532.08C373.981 532.603 373.189 539.146 373.189 542.548C373.189 560.081 378.735 576.305 388.505 589.651L394.843 585.203C397.22 583.633 397.748 580.231 396.163 577.875C389.826 567.67 386.129 555.37 386.129 542.548C386.129 537.314 387.713 528.94 388.769 524.229C389.297 522.136 388.505 520.304 387.185 518.734C385.865 517.425 383.752 516.64 381.639 517.164C377.15 518.21 368.436 519.781 363.154 519.781C350.215 520.042 338.067 516.379 327.504 510.098Z" fill="white"/>
<path d="M328.826 1291.54L321.168 1283.95C320.376 1283.16 320.376 1281.85 321.168 1281.07L359.459 1242.86L368.702 1252.02L328.826 1291.54Z" fill="white"/>
<path d="M324.606 1268.25L316.948 1260.66C316.155 1259.87 316.155 1258.56 316.948 1257.78L345.732 1228.99L354.974 1238.15L324.606 1268.25Z" fill="white"/>
<path d="M320.114 1245.22L312.455 1237.63C311.663 1236.84 311.663 1235.53 312.455 1234.75L331.733 1215.38L340.975 1224.54L320.114 1245.22Z" fill="white"/>
<path d="M327.504 1188.17C325.128 1186.86 321.959 1187.39 320.374 1189.48L315.621 1195.76C329.089 1205.44 345.461 1210.94 363.418 1210.94C366.851 1210.94 373.453 1210.41 373.981 1210.15C373.981 1210.68 373.189 1217.22 373.189 1220.62C373.189 1238.15 378.735 1254.38 388.505 1267.72L394.843 1263.28C397.22 1261.7 397.748 1258.3 396.163 1255.95C389.826 1245.74 386.129 1233.44 386.129 1220.62C386.129 1215.39 387.713 1207.01 388.769 1202.3C389.297 1200.21 388.505 1198.38 387.185 1196.81C385.865 1195.5 383.752 1194.71 381.639 1195.24C377.15 1196.28 368.436 1197.85 363.154 1197.85C350.215 1198.11 338.067 1194.45 327.504 1188.17Z" fill="white"/>
<path d="M1112.9 104.524L1105.24 96.9347C1104.45 96.1497 1104.45 94.8412 1105.24 94.0562L1143.54 55.8496L1152.78 65.0087L1112.9 104.524Z" fill="white"/>
<path d="M1108.68 81.2318L1101.02 73.6429C1100.23 72.8578 1100.23 71.5493 1101.02 70.7643L1129.81 41.9785L1139.05 51.1376L1108.68 81.2318Z" fill="white"/>
<path d="M1104.19 58.2075L1096.53 50.6185C1095.74 49.8335 1095.74 48.525 1096.53 47.74L1115.81 28.375L1125.05 37.5341L1104.19 58.2075Z" fill="white"/>
<path d="M1111.58 1.15671C1109.2 -0.15173 1106.04 0.371647 1104.45 2.46516L1099.7 8.74568C1113.16 18.4282 1129.54 23.9236 1147.49 23.9236C1150.93 23.9236 1157.53 23.4002 1158.06 23.1386C1158.06 23.6619 1157.27 30.2042 1157.27 33.6061C1157.27 51.1392 1162.81 67.3639 1172.58 80.7101L1178.92 76.2614C1181.3 74.6912 1181.82 71.2893 1180.24 68.9341C1173.9 58.7282 1170.2 46.4289 1170.2 33.6061C1170.2 28.3723 1171.79 19.9983 1172.85 15.2879C1173.37 13.1944 1172.58 11.3626 1171.26 9.79244C1169.94 8.484 1167.83 7.69893 1165.72 8.22231C1161.23 9.26906 1152.51 10.8392 1147.23 10.8392C1134.29 11.1009 1122.14 7.43724 1111.58 1.15671Z" fill="white"/>
<path d="M1112.9 782.594L1105.24 775.005C1104.45 774.22 1104.45 772.912 1105.24 772.126L1143.54 733.92L1152.78 743.079L1112.9 782.594Z" fill="white"/>
<path d="M1108.68 759.304L1101.02 751.715C1100.23 750.93 1100.23 749.622 1101.02 748.837L1129.81 720.051L1139.05 729.21L1108.68 759.304Z" fill="white"/>
<path d="M1104.19 736.274L1096.53 728.685C1095.74 727.9 1095.74 726.591 1096.53 725.806L1115.81 706.441L1125.05 715.601L1104.19 736.274Z" fill="white"/>
<path d="M1111.58 679.229C1109.2 677.921 1106.04 678.444 1104.45 680.537L1099.7 686.818C1113.16 696.5 1129.54 701.996 1147.49 701.996C1150.93 701.996 1157.53 701.473 1158.06 701.211C1158.06 701.734 1157.27 708.276 1157.27 711.678C1157.27 729.212 1162.81 745.436 1172.58 758.782L1178.92 754.334C1181.3 752.763 1181.82 749.362 1180.24 747.006C1173.9 736.8 1170.2 724.501 1170.2 711.678C1170.2 706.445 1171.79 698.071 1172.85 693.36C1173.37 691.267 1172.58 689.435 1171.26 687.865C1169.94 686.556 1167.83 685.771 1165.72 686.295C1161.23 687.341 1152.51 688.911 1147.23 688.911C1134.29 689.173 1122.14 685.51 1111.58 679.229Z" fill="white"/>
<path d="M1112.9 443.819L1105.24 436.23C1104.45 435.445 1104.45 434.136 1105.24 433.351L1143.54 395.145L1152.78 404.304L1112.9 443.819Z" fill="white"/>
<path d="M1108.68 420.531L1101.02 412.942C1100.23 412.157 1100.23 410.848 1101.02 410.063L1129.81 381.277L1139.05 390.436L1108.68 420.531Z" fill="white"/>
<path d="M1104.19 397.5L1096.53 389.912C1095.74 389.126 1095.74 387.818 1096.53 387.033L1115.81 367.668L1125.05 376.827L1104.19 397.5Z" fill="white"/>
<path d="M1111.58 340.452C1109.2 339.143 1106.04 339.667 1104.45 341.76L1099.7 348.041C1113.16 357.723 1129.54 363.219 1147.49 363.219C1150.93 363.219 1157.53 362.695 1158.06 362.433C1158.06 362.957 1157.27 369.499 1157.27 372.901C1157.27 390.434 1162.81 406.659 1172.58 420.005L1178.92 415.556C1181.3 413.986 1181.82 410.584 1180.24 408.229C1173.9 398.023 1170.2 385.724 1170.2 372.901C1170.2 367.667 1171.79 359.293 1172.85 354.583C1173.37 352.489 1172.58 350.657 1171.26 349.087C1169.94 347.779 1167.83 346.994 1165.72 347.517C1161.23 348.564 1152.51 350.134 1147.23 350.134C1134.29 350.396 1122.14 346.732 1111.58 340.452Z" fill="white"/>
<path d="M1112.9 1121.89L1105.24 1114.3C1104.45 1113.52 1104.45 1112.21 1105.24 1111.42L1143.54 1073.22L1152.78 1082.38L1112.9 1121.89Z" fill="white"/>
<path d="M1108.68 1098.6L1101.02 1091.01C1100.23 1090.23 1100.23 1088.92 1101.02 1088.14L1129.81 1059.35L1139.05 1068.51L1108.68 1098.6Z" fill="white"/>
<path d="M1104.19 1075.57L1096.53 1067.98C1095.74 1067.2 1095.74 1065.89 1096.53 1065.1L1115.81 1045.74L1125.05 1054.9L1104.19 1075.57Z" fill="white"/>
<path d="M1111.58 1018.52C1109.2 1017.22 1106.04 1017.74 1104.45 1019.83L1099.7 1026.11C1113.16 1035.8 1129.54 1041.29 1147.49 1041.29C1150.93 1041.29 1157.53 1040.77 1158.06 1040.51C1158.06 1041.03 1157.27 1047.57 1157.27 1050.97C1157.27 1068.51 1162.81 1084.73 1172.58 1098.08L1178.92 1093.63C1181.3 1092.06 1181.82 1088.66 1180.24 1086.3C1173.9 1076.1 1170.2 1063.8 1170.2 1050.97C1170.2 1045.74 1171.79 1037.37 1172.85 1032.66C1173.37 1030.56 1172.58 1028.73 1171.26 1027.16C1169.94 1025.85 1167.83 1025.07 1165.72 1025.59C1161.23 1026.64 1152.51 1028.21 1147.23 1028.21C1134.29 1028.47 1122.14 1024.8 1111.58 1018.52Z" fill="white"/>
<path d="M949.649 274.17L941.991 266.581C941.198 265.796 941.198 264.488 941.991 263.703L980.281 225.496L989.524 234.655L949.649 274.17Z" fill="white"/>
<path d="M945.422 250.88L937.764 243.291C936.972 242.506 936.972 241.198 937.764 240.413L966.548 211.627L975.791 220.786L945.422 250.88Z" fill="white"/>
<path d="M940.934 227.85L933.276 220.261C932.484 219.476 932.484 218.168 933.276 217.383L952.553 198.018L961.796 207.177L940.934 227.85Z" fill="white"/>
<path d="M948.325 170.807C945.948 169.499 942.779 170.022 941.195 172.116L936.441 178.396C949.909 188.079 966.282 193.574 984.239 193.574C987.672 193.574 994.273 193.051 994.802 192.789C994.802 193.312 994.009 199.855 994.009 203.256C994.009 220.79 999.555 237.014 1009.33 250.36L1015.66 245.912C1018.04 244.342 1018.57 240.94 1016.98 238.584C1010.65 228.379 1006.95 216.079 1006.95 203.256C1006.95 198.023 1008.53 189.649 1009.59 184.938C1010.12 182.845 1009.33 181.013 1008.01 179.443C1006.68 178.134 1004.57 177.349 1002.46 177.873C997.97 178.919 989.256 180.49 983.975 180.49C971.035 180.751 958.888 177.088 948.325 170.807Z" fill="white"/>
<path d="M949.645 952.242L941.987 944.653C941.195 943.868 941.195 942.56 941.987 941.775L980.277 903.568L989.52 912.727L949.645 952.242Z" fill="white"/>
<path d="M945.422 928.954L937.764 921.366C936.972 920.58 936.972 919.272 937.764 918.487L966.548 889.701L975.791 898.86L945.422 928.954Z" fill="white"/>
<path d="M940.934 905.92L933.276 898.331C932.484 897.546 932.484 896.238 933.276 895.453L952.553 876.088L961.796 885.247L940.934 905.92Z" fill="white"/>
<path d="M948.325 848.872C945.948 847.563 942.779 848.086 941.195 850.18L936.441 856.461C949.909 866.143 966.282 871.638 984.239 871.638C987.672 871.638 994.273 871.115 994.802 870.853C994.802 871.377 994.009 877.919 994.009 881.321C994.009 898.854 999.555 915.079 1009.33 928.425L1015.66 923.976C1018.04 922.406 1018.57 919.004 1016.98 916.649C1010.65 906.443 1006.95 894.144 1006.95 881.321C1006.95 876.087 1008.53 867.713 1009.59 863.003C1010.12 860.909 1009.33 859.077 1008.01 857.507C1006.68 856.199 1004.57 855.414 1002.46 855.937C997.97 856.984 989.256 858.554 983.975 858.554C971.035 858.816 958.888 855.152 948.325 848.872Z" fill="white"/>
<path d="M949.649 613.467L941.991 605.878C941.198 605.093 941.198 603.785 941.991 603L980.281 564.793L989.524 573.952L949.649 613.467Z" fill="white"/>
<path d="M945.422 590.179L937.764 582.59C936.972 581.805 936.972 580.497 937.764 579.712L966.548 550.926L975.791 560.085L945.422 590.179Z" fill="white"/>
<path d="M940.934 567.147L933.276 559.558C932.484 558.773 932.484 557.464 933.276 556.679L952.553 537.314L961.796 546.474L940.934 567.147Z" fill="white"/>
<path d="M948.325 510.1C945.948 508.792 942.779 509.315 941.195 511.409L936.441 517.689C949.909 527.372 966.282 532.867 984.239 532.867C987.672 532.867 994.273 532.344 994.802 532.082C994.802 532.605 994.009 539.148 994.009 542.549C994.009 560.083 999.555 576.307 1009.33 589.653L1015.66 585.205C1018.04 583.635 1018.57 580.233 1016.98 577.877C1010.65 567.672 1006.95 555.372 1006.95 542.549C1006.95 537.316 1008.53 528.942 1009.59 524.231C1010.12 522.138 1009.33 520.306 1008.01 518.736C1006.68 517.427 1004.57 516.642 1002.46 517.166C997.97 518.212 989.256 519.783 983.975 519.783C971.035 520.044 958.888 516.381 948.325 510.1Z" fill="white"/>
<path d="M949.649 1291.54L941.991 1283.95C941.198 1283.16 941.198 1281.85 941.991 1281.07L980.281 1242.86L989.524 1252.02L949.649 1291.54Z" fill="white"/>
<path d="M945.422 1268.25L937.764 1260.66C936.972 1259.87 936.972 1258.56 937.764 1257.78L966.548 1228.99L975.791 1238.15L945.422 1268.25Z" fill="white"/>
<path d="M940.934 1245.22L933.276 1237.63C932.484 1236.84 932.484 1235.53 933.276 1234.75L952.553 1215.38L961.796 1224.54L940.934 1245.22Z" fill="white"/>
<path d="M948.325 1188.17C945.948 1186.86 942.779 1187.39 941.195 1189.48L936.441 1195.76C949.909 1205.44 966.282 1210.94 984.239 1210.94C987.672 1210.94 994.273 1210.41 994.802 1210.15C994.802 1210.68 994.009 1217.22 994.009 1220.62C994.009 1238.15 999.555 1254.38 1009.33 1267.72L1015.66 1263.28C1018.04 1261.7 1018.57 1258.3 1016.98 1255.95C1010.65 1245.74 1006.95 1233.44 1006.95 1220.62C1006.95 1215.39 1008.53 1207.01 1009.59 1202.3C1010.12 1200.21 1009.33 1198.38 1008.01 1196.81C1006.68 1195.5 1004.57 1194.71 1002.46 1195.24C997.97 1196.28 989.256 1197.85 983.975 1197.85C971.035 1198.11 958.888 1194.45 948.325 1188.17Z" fill="white"/>
<path d="M1733.21 104.524L1725.56 96.9347C1724.76 96.1497 1724.76 94.8412 1725.56 94.0562L1763.85 55.8496L1773.09 65.0087L1733.21 104.524Z" fill="white"/>
<path d="M1728.99 81.2318L1721.33 73.6429C1720.54 72.8578 1720.54 71.5493 1721.33 70.7643L1750.11 41.9785L1759.36 51.1376L1728.99 81.2318Z" fill="white"/>
<path d="M1724.5 58.2075L1716.84 50.6185C1716.05 49.8335 1716.05 48.525 1716.84 47.74L1736.12 28.375L1745.36 37.5341L1724.5 58.2075Z" fill="white"/>
<path d="M1731.89 1.15671C1729.51 -0.15173 1726.34 0.371647 1724.76 2.46516L1720.01 8.74568C1733.47 18.4282 1749.85 23.9236 1767.8 23.9236C1771.24 23.9236 1777.84 23.4002 1778.37 23.1386C1778.37 23.6619 1777.57 30.2042 1777.57 33.6061C1777.57 51.1392 1783.12 67.3639 1792.89 80.7101L1799.23 76.2614C1801.6 74.6912 1802.13 71.2893 1800.55 68.9341C1794.21 58.7282 1790.51 46.4289 1790.51 33.6061C1790.51 28.3723 1792.1 19.9983 1793.15 15.2879C1793.68 13.1944 1792.89 11.3626 1791.57 9.79244C1790.25 8.484 1788.14 7.69893 1786.02 8.22231C1781.53 9.26906 1772.82 10.8392 1767.54 10.8392C1754.6 11.1009 1742.45 7.43724 1731.89 1.15671Z" fill="white"/>
<path d="M1733.21 782.594L1725.56 775.005C1724.76 774.22 1724.76 772.912 1725.56 772.126L1763.85 733.92L1773.09 743.079L1733.21 782.594Z" fill="white"/>
<path d="M1728.99 759.304L1721.33 751.715C1720.54 750.93 1720.54 749.622 1721.33 748.837L1750.11 720.051L1759.36 729.21L1728.99 759.304Z" fill="white"/>
<path d="M1724.5 736.274L1716.84 728.685C1716.05 727.9 1716.05 726.591 1716.84 725.806L1736.12 706.441L1745.36 715.601L1724.5 736.274Z" fill="white"/>
<path d="M1731.89 679.229C1729.51 677.921 1726.34 678.444 1724.76 680.537L1720.01 686.818C1733.47 696.5 1749.85 701.996 1767.8 701.996C1771.24 701.996 1777.84 701.473 1778.37 701.211C1778.37 701.734 1777.57 708.276 1777.57 711.678C1777.57 729.212 1783.12 745.436 1792.89 758.782L1799.23 754.334C1801.6 752.763 1802.13 749.362 1800.55 747.006C1794.21 736.8 1790.51 724.501 1790.51 711.678C1790.51 706.445 1792.1 698.071 1793.15 693.36C1793.68 691.267 1792.89 689.435 1791.57 687.865C1790.25 686.556 1788.14 685.771 1786.02 686.295C1781.53 687.341 1772.82 688.911 1767.54 688.911C1754.6 689.173 1742.45 685.51 1731.89 679.229Z" fill="white"/>
<path d="M1733.21 443.819L1725.56 436.23C1724.76 435.445 1724.76 434.136 1725.56 433.351L1763.85 395.145L1773.09 404.304L1733.21 443.819Z" fill="white"/>
<path d="M1728.99 420.531L1721.33 412.942C1720.54 412.157 1720.54 410.848 1721.33 410.063L1750.11 381.277L1759.36 390.436L1728.99 420.531Z" fill="white"/>
<path d="M1724.5 397.5L1716.84 389.912C1716.05 389.126 1716.05 387.818 1716.84 387.033L1736.12 367.668L1745.36 376.827L1724.5 397.5Z" fill="white"/>
<path d="M1731.89 340.452C1729.51 339.143 1726.34 339.667 1724.76 341.76L1720.01 348.041C1733.47 357.723 1749.85 363.219 1767.8 363.219C1771.24 363.219 1777.84 362.695 1778.37 362.433C1778.37 362.957 1777.57 369.499 1777.57 372.901C1777.57 390.434 1783.12 406.659 1792.89 420.005L1799.23 415.556C1801.6 413.986 1802.13 410.584 1800.55 408.229C1794.21 398.023 1790.51 385.724 1790.51 372.901C1790.51 367.667 1792.1 359.293 1793.15 354.583C1793.68 352.489 1792.89 350.657 1791.57 349.087C1790.25 347.779 1788.14 346.994 1786.02 347.517C1781.53 348.564 1772.82 350.134 1767.54 350.134C1754.6 350.396 1742.45 346.732 1731.89 340.452Z" fill="white"/>
<path d="M1733.21 1121.89L1725.56 1114.3C1724.76 1113.52 1724.76 1112.21 1725.56 1111.42L1763.85 1073.22L1773.09 1082.38L1733.21 1121.89Z" fill="white"/>
<path d="M1728.99 1098.6L1721.33 1091.01C1720.54 1090.23 1720.54 1088.92 1721.33 1088.14L1750.11 1059.35L1759.36 1068.51L1728.99 1098.6Z" fill="white"/>
<path d="M1724.5 1075.57L1716.84 1067.98C1716.05 1067.2 1716.05 1065.89 1716.84 1065.1L1736.12 1045.74L1745.36 1054.9L1724.5 1075.57Z" fill="white"/>
<path d="M1731.89 1018.52C1729.51 1017.22 1726.34 1017.74 1724.76 1019.83L1720.01 1026.11C1733.47 1035.8 1749.85 1041.29 1767.8 1041.29C1771.24 1041.29 1777.84 1040.77 1778.37 1040.51C1778.37 1041.03 1777.57 1047.57 1777.57 1050.97C1777.57 1068.51 1783.12 1084.73 1792.89 1098.08L1799.23 1093.63C1801.6 1092.06 1802.13 1088.66 1800.55 1086.3C1794.21 1076.1 1790.51 1063.8 1790.51 1050.97C1790.51 1045.74 1792.1 1037.37 1793.15 1032.66C1793.68 1030.56 1792.89 1028.73 1791.57 1027.16C1790.25 1025.85 1788.14 1025.07 1786.02 1025.59C1781.53 1026.64 1772.82 1028.21 1767.54 1028.21C1754.6 1028.47 1742.45 1024.8 1731.89 1018.52Z" fill="white"/>
<path d="M1569.96 274.17L1562.3 266.581C1561.51 265.796 1561.51 264.488 1562.3 263.703L1600.59 225.496L1609.83 234.655L1569.96 274.17Z" fill="white"/>
<path d="M1565.73 250.88L1558.07 243.291C1557.28 242.506 1557.28 241.198 1558.07 240.413L1586.85 211.627L1596.1 220.786L1565.73 250.88Z" fill="white"/>
<path d="M1561.24 227.85L1553.58 220.261C1552.79 219.476 1552.79 218.168 1553.58 217.383L1572.86 198.018L1582.1 207.177L1561.24 227.85Z" fill="white"/>
<path d="M1568.63 170.807C1566.25 169.499 1563.08 170.022 1561.5 172.116L1556.75 178.396C1570.21 188.079 1586.59 193.574 1604.54 193.574C1607.98 193.574 1614.58 193.051 1615.11 192.789C1615.11 193.312 1614.31 199.855 1614.31 203.256C1614.31 220.79 1619.86 237.014 1629.63 250.36L1635.97 245.912C1638.34 244.342 1638.87 240.94 1637.29 238.584C1630.95 228.379 1627.25 216.079 1627.25 203.256C1627.25 198.023 1628.84 189.649 1629.89 184.938C1630.42 182.845 1629.63 181.013 1628.31 179.443C1626.99 178.134 1624.88 177.349 1622.76 177.873C1618.28 178.919 1609.56 180.49 1604.28 180.49C1591.34 180.751 1579.19 177.088 1568.63 170.807Z" fill="white"/>
<path d="M1569.96 952.242L1562.3 944.653C1561.51 943.868 1561.51 942.56 1562.3 941.775L1600.59 903.568L1609.83 912.727L1569.96 952.242Z" fill="white"/>
<path d="M1565.73 928.956L1558.07 921.367C1557.28 920.582 1557.28 919.274 1558.07 918.489L1586.85 889.703L1596.1 898.862L1565.73 928.956Z" fill="white"/>
<path d="M1561.24 905.92L1553.58 898.331C1552.79 897.546 1552.79 896.238 1553.58 895.453L1572.86 876.088L1582.1 885.247L1561.24 905.92Z" fill="white"/>
<path d="M1568.63 848.875C1566.25 847.567 1563.08 848.09 1561.5 850.184L1556.75 856.464C1570.21 866.147 1586.59 871.642 1604.54 871.642C1607.98 871.642 1614.58 871.119 1615.11 870.857C1615.11 871.381 1614.31 877.923 1614.31 881.325C1614.31 898.858 1619.86 915.083 1629.63 928.429L1635.97 923.98C1638.34 922.41 1638.87 919.008 1637.29 916.653C1630.95 906.447 1627.25 894.148 1627.25 881.325C1627.25 876.091 1628.84 867.717 1629.89 863.007C1630.42 860.913 1629.63 859.081 1628.31 857.511C1626.99 856.203 1624.88 855.418 1622.76 855.941C1618.28 856.988 1609.56 858.558 1604.28 858.558C1591.34 858.82 1579.19 855.156 1568.63 848.875Z" fill="white"/>
<path d="M1569.96 613.469L1562.3 605.88C1561.51 605.095 1561.51 603.787 1562.3 603.001L1600.59 564.795L1609.83 573.954L1569.96 613.469Z" fill="white"/>
<path d="M1565.73 590.181L1558.07 582.592C1557.28 581.807 1557.28 580.499 1558.07 579.713L1586.85 550.928L1596.1 560.087L1565.73 590.181Z" fill="white"/>
<path d="M1561.24 567.149L1553.58 559.56C1552.79 558.775 1552.79 557.466 1553.58 556.681L1572.86 537.316L1582.1 546.476L1561.24 567.149Z" fill="white"/>
<path d="M1568.63 510.104C1566.25 508.796 1563.08 509.319 1561.5 511.412L1556.75 517.693C1570.21 527.375 1586.59 532.871 1604.54 532.871C1607.98 532.871 1614.58 532.348 1615.11 532.086C1615.11 532.609 1614.31 539.151 1614.31 542.553C1614.31 560.087 1619.86 576.311 1629.63 589.657L1635.97 585.209C1638.34 583.638 1638.87 580.237 1637.29 577.881C1630.95 567.675 1627.25 555.376 1627.25 542.553C1627.25 537.32 1628.84 528.946 1629.89 524.235C1630.42 522.142 1629.63 520.31 1628.31 518.74C1626.99 517.431 1624.88 516.646 1622.76 517.17C1618.28 518.216 1609.56 519.786 1604.28 519.786C1591.34 520.048 1579.19 516.385 1568.63 510.104Z" fill="white"/>
<path d="M1569.96 1291.54L1562.3 1283.95C1561.51 1283.16 1561.51 1281.85 1562.3 1281.07L1600.59 1242.86L1609.83 1252.02L1569.96 1291.54Z" fill="white"/>
<path d="M1565.73 1268.25L1558.07 1260.66C1557.28 1259.87 1557.28 1258.56 1558.07 1257.78L1586.85 1228.99L1596.1 1238.15L1565.73 1268.25Z" fill="white"/>
<path d="M1561.24 1245.22L1553.58 1237.63C1552.79 1236.84 1552.79 1235.53 1553.58 1234.75L1572.86 1215.38L1582.1 1224.54L1561.24 1245.22Z" fill="white"/>
<path d="M1568.63 1188.17C1566.25 1186.86 1563.08 1187.39 1561.5 1189.48L1556.75 1195.76C1570.21 1205.44 1586.59 1210.94 1604.54 1210.94C1607.98 1210.94 1614.58 1210.41 1615.11 1210.15C1615.11 1210.68 1614.31 1217.22 1614.31 1220.62C1614.31 1238.15 1619.86 1254.38 1629.63 1267.72L1635.97 1263.28C1638.34 1261.7 1638.87 1258.3 1637.29 1255.95C1630.95 1245.74 1627.25 1233.44 1627.25 1220.62C1627.25 1215.39 1628.84 1207.01 1629.89 1202.3C1630.42 1200.21 1629.63 1198.38 1628.31 1196.81C1626.99 1195.5 1624.88 1194.71 1622.76 1195.24C1618.28 1196.28 1609.56 1197.85 1604.28 1197.85C1591.34 1198.11 1579.19 1194.45 1568.63 1188.17Z" fill="white"/>
</g>
</svg>
