<svg width="29.666016" height="14.857422" viewBox="0 0 29.666 14.8574" fill="none" xmlns="http://www.w3.org/2000/svg" xmlns:xlink="http://www.w3.org/1999/xlink">
	<desc>
			Created with Pixso.
	</desc>
	<defs>
		<clipPath id="clip959_24272">
			<rect id="_Слой_1" rx="0.000000" width="29.607487" height="14.797809" transform="translate(0.029667 0.029667)" fill="white" fill-opacity="0"/>
		</clipPath>
		<linearGradient x1="6.251980" y1="17.176920" x2="23.242170" y2="-2.099394" id="paint_linear_959_24273_0" gradientUnits="userSpaceOnUse">
			<stop stop-color="#C7E701"/>
			<stop offset="0.240000" stop-color="#0ADA01"/>
			<stop offset="0.440000" stop-color="#21DE58"/>
			<stop offset="0.630000" stop-color="#3EE3A9"/>
			<stop offset="0.810000" stop-color="#37DABE"/>
			<stop offset="1.000000" stop-color="#15CAE0"/>
		</linearGradient>
	</defs>
	<rect id="_Слой_1" rx="0.000000" width="29.607487" height="14.797809" transform="translate(0.029667 0.029667)" fill="#FFFFFF" fill-opacity="0"/>
	<g clip-path="url(#clip959_24272)">
		<path id="Vector" d="M0 7.45C0 3.33 3.33 -0.01 7.4 -0.01L22.26 -0.01C26.38 -0.01 29.66 3.33 29.66 7.45C29.66 11.57 26.33 14.85 22.26 14.85L7.45 14.85C3.33 14.9 0 11.57 0 7.45Z" fill="url(#paint_linear_959_24273_0)" fill-opacity="1.000000" fill-rule="nonzero"/>
		<path id="Vector" d="M14.8 8.28L14.8 10L13.81 10L13.81 4.53L15.64 4.53C17.36 4.53 18.09 5.15 18.09 6.35C18.09 7.55 17.25 8.28 15.64 8.28L14.8 8.28ZM14.8 5.41L14.8 7.4L15.74 7.4C16.63 7.4 17.1 7.08 17.1 6.35C17.1 5.68 16.68 5.41 15.74 5.41L14.8 5.41L14.8 5.41Z" fill="#FFFFFF" fill-opacity="1.000000" fill-rule="nonzero"/>
		<path id="Vector" d="M18.61 6.35C18.87 6.15 19.34 5.99 20.02 5.99C21.16 5.99 21.74 6.35 21.74 7.4L21.74 9.95L20.9 9.95L20.9 9.27C20.69 9.74 20.23 10.06 19.6 10.06C18.82 10.06 18.35 9.59 18.35 8.86C18.35 7.97 18.97 7.71 19.97 7.71L20.85 7.71L20.85 7.55C20.85 6.98 20.59 6.82 20.07 6.82C19.34 6.82 18.92 7.08 18.66 7.5L18.61 6.35L18.61 6.35ZM20.8 8.6L20.8 8.28L20.02 8.28C19.5 8.28 19.24 8.39 19.24 8.75C19.24 9.07 19.44 9.22 19.86 9.22C20.49 9.22 20.75 8.86 20.8 8.6L20.8 8.6Z" fill="#FFFFFF" fill-opacity="1.000000" fill-rule="nonzero"/>
		<path id="Vector" d="M22.15 6.04L23.14 6.04L24.19 8.7L25.07 6.04L26.01 6.04L24.45 10.32C24.08 11.25 23.77 11.46 23.25 11.46C22.99 11.46 22.73 11.41 22.62 11.31L22.62 10.47C22.73 10.58 22.94 10.68 23.09 10.68C23.35 10.68 23.56 10.47 23.72 9.95L22.15 6.04L22.15 6.04Z" fill="#FFFFFF" fill-opacity="1.000000" fill-rule="nonzero"/>
		<path id="Vector" d="M5.83 6.35L5.83 7.55L7.4 8.54L11.21 5.78C11.05 5.47 10.89 5.21 10.68 4.94L7.4 7.34L5.83 6.35Z" fill="#FFFFFF" fill-opacity="1.000000" fill-rule="nonzero"/>
		<path id="Vector" d="M10.63 7.34L10.63 7.45C10.63 8.18 10.37 8.86 9.95 9.43C9.54 10 8.91 10.37 8.18 10.58C7.5 10.73 6.77 10.68 6.09 10.37C5.42 10.06 4.9 9.59 4.58 8.96C4.27 8.33 4.11 7.6 4.27 6.88C4.37 6.15 4.74 5.52 5.31 5.05C5.83 4.58 6.51 4.27 7.24 4.27C7.97 4.22 8.65 4.42 9.27 4.84L10.11 4.27C9.38 3.7 8.44 3.33 7.5 3.33C6.56 3.33 5.63 3.64 4.9 4.22C4.16 4.79 3.64 5.62 3.43 6.56C3.23 7.5 3.33 8.44 3.75 9.27C4.16 10.11 4.84 10.84 5.68 11.2C6.51 11.62 7.5 11.73 8.39 11.52C9.33 11.31 10.11 10.79 10.73 10.06C11.31 9.33 11.62 8.39 11.62 7.45C11.62 7.19 11.62 6.93 11.57 6.72L10.63 7.34L10.63 7.34Z" fill="#FFFFFF" fill-opacity="1.000000" fill-rule="nonzero"/>
	</g>
</svg>
