<svg width="44.328125" height="16.000000" viewBox="0 0 44.3281 16" fill="none" xmlns="http://www.w3.org/2000/svg" xmlns:xlink="http://www.w3.org/1999/xlink">
	<desc>
			Created with Pixso.
	</desc>
	<defs>
		<clipPath id="clip959_24284">
			<rect id="Frame" rx="0.000000" width="44.196720" height="15.868853" transform="translate(0.065574 0.065574)" fill="white" fill-opacity="0"/>
		</clipPath>
	</defs>
	<rect id="Frame" rx="0.000000" width="44.196720" height="15.868853" transform="translate(0.065574 0.065574)" fill="#FFFFFF" fill-opacity="0"/>
	<g clip-path="url(#clip959_24284)">
		<path id="Vector" d="M28.26 1.82L28.26 13.86L26.17 13.86L26.17 3.44L22.42 3.44L22.42 13.86L20.33 13.86L20.33 1.82L28.26 1.82Z" fill="#000000" fill-opacity="1.000000" fill-rule="nonzero"/>
		<path id="Vector" d="M31.78 14.04C30.85 14.04 30.14 13.86 29.65 13.5L29.65 11.82C29.91 12 30.2 12.15 30.51 12.25C30.83 12.36 31.22 12.41 31.66 12.41C32.32 12.41 32.81 12.22 33.15 11.84C33.48 11.44 33.69 10.91 33.77 10.23L30.74 10.23L30.74 8.6L33.75 8.6C33.56 7.27 32.88 6.6 31.71 6.6C31.35 6.6 30.99 6.66 30.63 6.78C30.29 6.89 30.01 7.01 29.8 7.14L29.8 5.39C30.02 5.27 30.32 5.18 30.68 5.09C31.06 5.01 31.5 4.97 32.02 4.97C32.67 4.97 33.23 5.09 33.72 5.32C34.22 5.54 34.63 5.85 34.95 6.26C35.28 6.65 35.53 7.13 35.69 7.69C35.87 8.25 35.95 8.86 35.95 9.51C35.95 10.98 35.61 12.1 34.91 12.88C34.23 13.65 33.19 14.04 31.78 14.04Z" fill="#000000" fill-opacity="1.000000" fill-rule="nonzero"/>
		<path id="Vector" d="M40.85 4C40.02 4 39.39 3.79 38.97 3.38C38.55 2.96 38.34 2.44 38.34 1.82L40.08 1.82C40.08 2.12 40.15 2.33 40.28 2.47C40.43 2.61 40.62 2.68 40.85 2.68C41.08 2.68 41.25 2.61 41.38 2.47C41.5 2.32 41.57 2.1 41.57 1.82L43.3 1.82C43.3 2.12 43.25 2.4 43.14 2.66C43.04 2.93 42.88 3.16 42.67 3.36C42.48 3.55 42.23 3.71 41.91 3.83C41.61 3.94 41.26 4 40.85 4ZM39.33 5.14L39.33 10.55L42.49 5.14L44.32 5.14L44.32 13.86L42.33 13.86L42.33 8.47L39.17 13.86L37.34 13.86L37.34 5.14L39.33 5.14Z" fill="#000000" fill-opacity="1.000000" fill-rule="nonzero"/>
		<path id="Vector" d="M8 0L8.02 0C12.44 0 16.02 3.58 16.02 8C16.02 12.41 12.44 16 8.02 16L8 16C3.58 16 0 12.41 0 8C0 3.58 3.58 0 8 0Z" fill="#FC3F1D" fill-opacity="1.000000" fill-rule="evenodd"/>
		<path id="Vector" d="M9.14 12.8L10.81 12.8L10.81 3.2L8.37 3.2C5.93 3.2 4.64 4.46 4.64 6.31C4.64 7.79 5.34 8.66 6.6 9.56L4.42 12.8L6.23 12.8L8.66 9.17L7.82 8.6C6.8 7.91 6.3 7.37 6.3 6.21C6.3 5.19 7.02 4.5 8.39 4.5L9.14 4.5L9.14 12.8Z" fill="#FFFFFF" fill-opacity="1.000000" fill-rule="nonzero"/>
	</g>
</svg>
