<svg width="184.230469" height="16.000000" viewBox="0 0 184.23 16" fill="none" xmlns="http://www.w3.org/2000/svg" xmlns:xlink="http://www.w3.org/1999/xlink">
    <desc>
        Created with Pixso.
    </desc>
    <defs>
        <clipPath id="clip959_25055">
            <rect id="Frame" rx="0.000000" width="15.111111" height="15.111111" transform="translate(0.444444 0.444444)" fill="white" fill-opacity="0"/>
        </clipPath>
        <linearGradient x1="0.001953" y1="7.990855" x2="15.884040" y2="7.990855" id="paint_linear_959_25063_0" gradientUnits="userSpaceOnUse">
            <stop offset="0.100000" stop-color="#F7A700"/>
            <stop offset="0.886400" stop-color="#FEDA00"/>
        </linearGradient>
    </defs>
    <rect id="Frame" rx="0.000000" width="15.111111" height="15.111111" transform="translate(0.444444 0.444444)" fill="#FFFFFF" fill-opacity="0"/>
    <g clip-path="url(#clip959_25055)">
        <mask id="mask959_25060" mask-type="alpha" maskUnits="userSpaceOnUse" x="0.001953" y="0.044922" width="15.882812" height="15.882812">
            <path id="Vector" d="M0 7.98C0 12.37 3.55 15.92 7.94 15.92C12.32 15.92 15.88 12.37 15.88 7.98C15.88 3.59 12.32 0.04 7.94 0.04C3.55 0.04 0 3.59 0 7.98Z" fill="#000000" fill-opacity="1.000000" fill-rule="nonzero"/>
        </mask>
        <g mask="url(#mask959_25060)">
            <path id="Shape" d="M0 2.89L15.88 2.89L15.88 6.29L0 6.29L0 2.89ZM0 13.08L15.88 13.08L15.88 9.68L0 9.68L0 13.08Z" fill="url(#paint_linear_959_25063_0)" fill-opacity="1.000000" fill-rule="evenodd"/>
        </g>
        <mask id="mask959_25067" mask-type="alpha" maskUnits="userSpaceOnUse" x="0.001953" y="0.044922" width="15.882812" height="15.882812">
            <path id="Vector" d="M0 7.98C0 12.37 3.55 15.92 7.94 15.92C12.32 15.92 15.88 12.37 15.88 7.98C15.88 3.59 12.32 0.04 7.94 0.04C3.55 0.04 0 3.59 0 7.98Z" fill="#000000" fill-opacity="1.000000" fill-rule="nonzero"/>
        </mask>
        <g mask="url(#mask959_25067)">
            <path id="Shape" d="M0 2.89L15.88 2.89L15.88 0.04L0 0.04L0 2.89ZM0 6.29L15.88 6.29L15.88 9.69L0 9.69L0 6.29ZM15.88 13.09L0 13.09L0 15.92L15.88 15.92L15.88 13.09Z" fill="#1D1D1B" fill-opacity="1.000000" fill-rule="evenodd"/>
        </g>
    </g>
    <path id="Vector" d="M39.11 0L23.11 0L23.11 16L39.11 16L39.11 0Z" fill="#FF0032" fill-opacity="1.000000" fill-rule="nonzero"/>
    <path id="Vector" d="M27.97 1.23L26.8 3.67L25.62 1.23L24.34 1.23L24.34 4.92L25.24 4.92L25.24 2.28L26.39 4.51L27.21 4.51L28.36 2.28L28.36 4.92L29.26 4.92L29.26 1.23L27.97 1.23Z" fill="#FFFFFF" fill-opacity="1.000000" fill-rule="nonzero"/>
    <path id="Vector" d="M33.77 1.23L33.77 1.96L35.37 1.96L35.37 4.92L36.27 4.92L36.27 1.96L37.88 1.96L37.88 1.23L33.77 1.23Z" fill="#FFFFFF" fill-opacity="1.000000" fill-rule="nonzero"/>
    <path id="Vector" d="M36.98 13.53C36.96 13.68 36.9 13.8 36.8 13.89C36.71 13.98 36.59 14.04 36.44 14.07C36.29 14.11 36.08 14.13 35.84 14.13C35.61 14.13 35.4 14.1 35.22 14.04C35.04 13.98 34.91 13.87 34.81 13.73C34.71 13.58 34.66 13.37 34.66 13.11L34.66 12.73C34.66 12.46 34.71 12.25 34.81 12.1C34.91 11.96 35.04 11.86 35.22 11.8C35.4 11.74 35.61 11.71 35.84 11.71C36.08 11.71 36.29 11.73 36.44 11.76C36.59 11.79 36.71 11.86 36.8 11.94C36.9 12.04 36.96 12.16 36.98 12.3L37.88 12.3C37.86 12 37.75 11.74 37.57 11.53C37.41 11.34 37.18 11.2 36.9 11.12C36.62 11.03 36.26 10.99 35.85 10.99C35.42 10.99 35.04 11.05 34.73 11.17C34.42 11.3 34.18 11.51 34.01 11.79C33.85 12.06 33.77 12.43 33.76 12.87L33.76 12.91L33.81 12.91L33.76 12.92L33.76 12.96C33.77 13.41 33.85 13.77 34.01 14.04C34.18 14.33 34.42 14.53 34.73 14.66C35.04 14.78 35.41 14.84 35.85 14.84C36.28 14.84 36.62 14.8 36.9 14.71C37.18 14.63 37.41 14.49 37.57 14.3C37.75 14.09 37.86 13.83 37.88 13.53L36.98 13.53Z" fill="#FFFFFF" fill-opacity="1.000000" fill-rule="nonzero"/>
    <path id="Vector" d="M57.17 5.84C57.92 5.08 58.35 4.05 58.35 2.97L58.35 2.18C58.35 1.94 58.26 1.71 58.09 1.54C57.92 1.37 57.69 1.28 57.45 1.28C57.21 1.28 56.98 1.37 56.81 1.54C56.64 1.71 56.54 1.94 56.54 2.18L56.54 2.97C56.55 3.27 56.49 3.56 56.38 3.83C56.28 4.11 56.11 4.36 55.91 4.57C55.7 4.78 55.46 4.95 55.19 5.07C54.92 5.18 54.63 5.25 54.33 5.25C53.09 5.25 52.11 4.22 52.11 2.97L52.11 2.18C52.1 1.95 52 1.73 51.83 1.57C51.66 1.41 51.43 1.32 51.2 1.32C50.97 1.32 50.75 1.41 50.58 1.57C50.41 1.73 50.31 1.95 50.3 2.18L50.3 2.97C50.3 3.89 50.61 4.78 51.18 5.5C51.76 6.22 52.56 6.73 53.45 6.93L53.45 8.82C52.56 9.02 51.76 9.53 51.19 10.25C50.61 10.97 50.3 11.86 50.29 12.77L50.29 13.56C50.31 13.79 50.41 14.01 50.58 14.17C50.74 14.33 50.97 14.42 51.2 14.42C51.43 14.42 51.66 14.33 51.83 14.17C52 14.01 52.1 13.79 52.11 13.56L52.11 12.77C52.1 12.48 52.15 12.18 52.25 11.91C52.36 11.63 52.52 11.38 52.73 11.16C52.94 10.95 53.19 10.78 53.46 10.66C53.73 10.55 54.03 10.49 54.32 10.49C54.62 10.49 54.91 10.55 55.19 10.66C55.46 10.78 55.71 10.95 55.92 11.16C56.12 11.38 56.28 11.63 56.39 11.91C56.5 12.18 56.55 12.48 56.54 12.77L56.54 13.56C56.54 13.8 56.64 14.03 56.81 14.2C56.98 14.37 57.21 14.47 57.45 14.47C57.69 14.47 57.92 14.37 58.09 14.2C58.26 14.03 58.35 13.8 58.35 13.56L58.35 12.77C58.33 10.85 57.06 9.24 55.2 8.81L55.2 6.93C55.95 6.78 56.64 6.4 57.17 5.84Z" fill="#00B9EE" fill-opacity="1.000000" fill-rule="nonzero"/>
    <path id="Vector" d="M54.34 14.28C54.64 14.28 54.94 14.19 55.2 14.02C55.45 13.84 55.65 13.6 55.77 13.32C55.89 13.04 55.92 12.72 55.86 12.42C55.8 12.12 55.65 11.84 55.44 11.63C55.22 11.41 54.94 11.26 54.64 11.2C54.34 11.14 54.03 11.17 53.75 11.29C53.46 11.41 53.22 11.61 53.05 11.86C52.88 12.12 52.79 12.42 52.79 12.73C52.79 13.14 52.95 13.53 53.24 13.82C53.53 14.11 53.92 14.28 54.34 14.28Z" fill="#00B9EE" fill-opacity="1.000000" fill-rule="nonzero"/>
    <path id="Shape" d="M78.15 0.2L78.15 8.29C78.15 8.66 77.86 8.92 77.51 8.92L76.55 8.92C76.49 8.92 76.46 8.98 76.46 9.01L76.46 15.79C76.69 15.79 76.92 15.85 77.19 15.85C81.52 15.85 85.04 12.33 85.04 8C85.04 4.01 82.05 0.66 78.15 0.2ZM77.01 11.34C77.01 11.83 77.42 12.3 77.97 12.3C78.53 12.3 78.99 11.86 78.93 11.34C78.93 10.84 78.53 10.38 77.97 10.38C77.48 10.38 77.01 10.79 77.01 11.34ZM80.27 12.3C79.72 12.3 79.31 11.83 79.31 11.34C79.31 10.79 79.78 10.38 80.27 10.38C80.82 10.38 81.23 10.84 81.23 11.34C81.23 11.83 80.85 12.3 80.27 12.3ZM81.64 11.34C81.64 11.83 82.05 12.3 82.6 12.3C83.15 12.3 83.56 11.83 83.56 11.34C83.56 10.84 83.15 10.38 82.6 10.38C82.1 10.38 81.64 10.79 81.64 11.34Z" fill="#00B956" fill-opacity="1.000000" fill-rule="evenodd"/>
    <path id="Shape_1_" d="M69.33 8.02C69.33 3.69 72.85 0.17 77.19 0.17L77.16 7.88C77.16 7.91 77.13 7.97 77.07 7.97L76.11 7.97C75.82 8.02 75.53 8.29 75.53 8.6L75.53 15.67C71.98 14.95 69.33 11.83 69.33 8.02ZM74.71 5.67C74.71 6.16 75.12 6.63 75.67 6.63C76.2 6.63 76.64 6.16 76.64 5.67C76.64 5.17 76.23 4.71 75.67 4.71C75.18 4.71 74.71 5.11 74.71 5.67Z" fill="#00B956" fill-opacity="1.000000" fill-rule="evenodd"/>
    <path id="path0_fill" d="M121.4 1.98L121.4 4.62C121.9 4.6 122.31 4.78 122.49 5.15C122.78 5.73 122.48 6.6 121.78 7.42C120.7 8.67 117.85 11.24 117.85 11.24L121.96 11.1C124.47 8.68 125.37 7.21 125.53 5.39C125.63 4.4 125.27 3.47 124.55 2.82C123.78 2.1 122.64 1.8 121.4 1.98ZM120.92 2.03C118.5 2.53 117.31 4.29 117.45 7.15L120.03 6.92C119.92 5.31 120.42 4.92 120.93 4.71L120.92 2.03ZM112.98 3.43L112.98 5.8L116.54 5.42L116.54 2.93L112.98 3.43ZM110.06 3.83L110.06 14.17L112.51 14.17L112.51 3.48L110.06 3.83ZM103.8 14.17L103.8 4.7L105.93 4.4L105.93 14.17L103.8 14.17ZM100.39 5.17L100.39 7.18L103.09 6.88L103.09 4.8L100.39 5.17ZM98.16 5.48L98.16 14.17L100.04 14.17L100.04 5.22L98.16 5.48ZM92.66 6.24L92.66 8.01L97.51 7.49L97.51 5.57L92.66 6.24ZM112.98 10.02L112.98 7.6L115.32 7.4L115.32 9.9L112.98 10.02ZM94.21 14.17L94.21 8.12L95.98 7.93L95.98 14.17L94.21 14.17ZM100.39 10.7L100.39 8.66L102.16 8.51L102.16 10.61L100.39 10.7ZM117.33 11.66L117.34 14.17L125.68 14.17L125.68 11.42L117.33 11.66ZM112.98 14.17L112.98 11.8L116.54 11.68L116.54 14.17L112.98 14.17ZM106.33 14.17L106.33 11.99L109.41 11.9L109.41 14.17L106.33 14.17ZM100.39 14.17L100.39 12.16L103.09 12.08L103.09 14.17L100.39 14.17Z" fill="#1F2229" fill-opacity="1.000000" fill-rule="evenodd"/>
    <path id="path4" d="M184.23 0L133.33 0L133.33 16L184.23 16L184.23 0Z" fill="#FFDD2D" fill-opacity="1.000000" fill-rule="nonzero"/>
    <path id="path6" d="M144.07 10.29L144.07 6.94L146.05 6.94L146.05 5.72L140.66 5.72L140.66 6.94L142.63 6.94L142.63 10.29L144.07 10.29ZM148.07 5.72L146.63 5.72L146.63 10.29L148.07 10.29L148.07 5.72ZM149.12 5.72L149.12 10.29L150.45 10.29L150.45 7.77L152.91 10.29L154.14 10.29L154.14 5.72L152.82 5.72L152.82 8.23L150.41 5.72L149.12 5.72ZM156.97 8.56L158.63 10.29L160.48 10.29L158.17 7.91L160.4 5.72L158.65 5.72L156.97 7.44L156.59 7.44L156.59 5.72L155.19 5.72L155.19 10.29L156.59 10.29L156.59 8.56L156.97 8.56ZM163.35 5.6C161.48 5.6 160.35 6.65 160.35 8.01C160.35 9.38 161.48 10.43 163.35 10.43C165.21 10.43 166.33 9.38 166.33 8.01C166.33 6.65 165.21 5.6 163.35 5.6ZM163.35 9.32C162.42 9.32 161.82 8.76 161.82 8.01C161.82 7.27 162.42 6.72 163.35 6.72C164.27 6.72 164.87 7.27 164.87 8.01C164.87 8.76 164.27 9.32 163.35 9.32ZM171.61 5.72L166.99 5.72L166.99 10.29L168.39 10.29L168.39 8.7L171.41 8.7L171.41 7.69L168.39 7.69L168.39 6.88L171.61 6.88L171.61 5.72ZM176.85 5.72L172.23 5.72L172.23 10.29L173.62 10.29L173.62 8.7L176.65 8.7L176.65 7.69L173.62 7.69L173.62 6.88L176.85 6.88L176.85 5.72Z" fill="#000000" fill-opacity="1.000000" fill-rule="nonzero"/>
</svg>
