<svg width="162" height="96" viewBox="0 0 162 96" fill="none" xmlns="http://www.w3.org/2000/svg">
<path d="M9.77455 57.1945H23.9709V61.5H4.48V20.9473H9.77455V57.1945ZM47.9791 61.9073C44.2167 61.9073 40.7839 61.0345 37.6809 59.2891C34.5779 57.5048 32.1149 55.0418 30.2918 51.9C28.5076 48.7194 27.6155 45.1509 27.6155 41.1945C27.6155 37.2382 28.5076 33.6891 30.2918 30.5473C32.1149 27.3667 34.5779 24.9036 37.6809 23.1582C40.7839 21.3739 44.2167 20.4818 47.9791 20.4818C51.7803 20.4818 55.2324 21.3739 58.3355 23.1582C61.4385 24.9036 63.8821 27.3473 65.6664 30.4891C67.4506 33.6309 68.3427 37.1994 68.3427 41.1945C68.3427 45.1897 67.4506 48.7582 65.6664 51.9C63.8821 55.0418 61.4385 57.5048 58.3355 59.2891C55.2324 61.0345 51.7803 61.9073 47.9791 61.9073ZM47.9791 57.3109C50.8106 57.3109 53.3512 56.6515 55.6009 55.3327C57.8894 54.0139 59.6736 52.1327 60.9536 49.6891C62.2724 47.2455 62.9318 44.4139 62.9318 41.1945C62.9318 37.9364 62.2724 35.1048 60.9536 32.7C59.6736 30.2564 57.9088 28.3751 55.6591 27.0564C53.4094 25.7376 50.8494 25.0782 47.9791 25.0782C45.1088 25.0782 42.5488 25.7376 40.2991 27.0564C38.0494 28.3751 36.2652 30.2564 34.9464 32.7C33.6664 35.1048 33.0264 37.9364 33.0264 41.1945C33.0264 44.4139 33.6664 47.2455 34.9464 49.6891C36.2652 52.1327 38.0494 54.0139 40.2991 55.3327C42.5876 56.6515 45.1476 57.3109 47.9791 57.3109ZM106.052 32.7C104.927 30.3339 103.298 28.5109 101.165 27.2309C99.0317 25.9121 96.5492 25.2527 93.7177 25.2527C90.8862 25.2527 88.3262 25.9121 86.0377 27.2309C83.788 28.5109 82.0038 30.3727 80.685 32.8164C79.405 35.2212 78.765 38.0139 78.765 41.1945C78.765 44.3752 79.405 47.1679 80.685 49.5727C82.0038 51.9776 83.788 53.8394 86.0377 55.1582C88.3262 56.4382 90.8862 57.0782 93.7177 57.0782C97.6741 57.0782 100.932 55.8952 103.492 53.5291C106.052 51.163 107.546 47.963 107.972 43.9291H91.7977V39.6236H113.616V43.6964C113.306 47.0321 112.258 50.0964 110.474 52.8891C108.69 55.643 106.343 57.8345 103.434 59.4636C100.525 61.0539 97.2862 61.8491 93.7177 61.8491C89.9553 61.8491 86.5226 60.9764 83.4195 59.2309C80.3165 57.4467 77.8535 54.9836 76.0305 51.8418C74.2462 48.7 73.3541 45.1509 73.3541 41.1945C73.3541 37.2382 74.2462 33.6891 76.0305 30.5473C77.8535 27.3667 80.3165 24.9036 83.4195 23.1582C86.5226 21.3739 89.9553 20.4818 93.7177 20.4818C98.0232 20.4818 101.824 21.5485 105.121 23.6818C108.457 25.8151 110.881 28.8212 112.394 32.7H106.052ZM139.002 61.9073C135.239 61.9073 131.807 61.0345 128.704 59.2891C125.601 57.5048 123.138 55.0418 121.315 51.9C119.53 48.7194 118.638 45.1509 118.638 41.1945C118.638 37.2382 119.53 33.6891 121.315 30.5473C123.138 27.3667 125.601 24.9036 128.704 23.1582C131.807 21.3739 135.239 20.4818 139.002 20.4818C142.803 20.4818 146.255 21.3739 149.358 23.1582C152.461 24.9036 154.905 27.3473 156.689 30.4891C158.473 33.6309 159.365 37.1994 159.365 41.1945C159.365 45.1897 158.473 48.7582 156.689 51.9C154.905 55.0418 152.461 57.5048 149.358 59.2891C146.255 61.0345 142.803 61.9073 139.002 61.9073ZM139.002 57.3109C141.833 57.3109 144.374 56.6515 146.624 55.3327C148.912 54.0139 150.696 52.1327 151.976 49.6891C153.295 47.2455 153.955 44.4139 153.955 41.1945C153.955 37.9364 153.295 35.1048 151.976 32.7C150.696 30.2564 148.932 28.3751 146.682 27.0564C144.432 25.7376 141.872 25.0782 139.002 25.0782C136.132 25.0782 133.572 25.7376 131.322 27.0564C129.072 28.3751 127.288 30.2564 125.969 32.7C124.689 35.1048 124.049 37.9364 124.049 41.1945C124.049 44.4139 124.689 47.2455 125.969 49.6891C127.288 52.1327 129.072 54.0139 131.322 55.3327C133.61 56.6515 136.17 57.3109 139.002 57.3109Z" fill="#F45E09"/>
<path d="M44.1373 74.188C44.1373 75.1284 43.8552 75.8618 43.291 76.3884C42.7268 76.9149 42.0028 77.2723 41.1189 77.4603V77.5732C42.0592 77.7048 42.8773 78.0433 43.5731 78.5887C44.2689 79.1153 44.6169 79.9428 44.6169 81.0711C44.6169 81.7105 44.4946 82.3029 44.2501 82.8483C44.0245 83.3937 43.6671 83.8639 43.1782 84.2588C42.6892 84.6537 42.0592 84.964 41.2882 85.1897C40.5171 85.3966 39.5862 85.5 38.4954 85.5H31.9791V70.3798H38.4672C39.5392 70.3798 40.4983 70.502 41.3446 70.7465C42.2097 70.9722 42.8867 71.3671 43.3756 71.9313C43.8834 72.4767 44.1373 73.2289 44.1373 74.188ZM42.0498 81.0711C42.0498 80.206 41.7207 79.5854 41.0625 79.2093C40.4043 78.8332 39.4357 78.6451 38.1569 78.6451H34.4615V83.4971H38.2133C39.4545 83.4971 40.4043 83.3185 41.0625 82.9612C41.7207 82.585 42.0498 81.955 42.0498 81.0711ZM41.6267 74.4983C41.6267 73.7837 41.3634 73.2665 40.8368 72.9468C40.329 72.6083 39.4922 72.4391 38.3262 72.4391H34.4615V76.5858H37.8748C39.0972 76.5858 40.0281 76.4166 40.6675 76.0781C41.307 75.7396 41.6267 75.213 41.6267 74.4983ZM70.6759 90.7469H68.2499V85.5H55.7532V70.3798H58.2356V83.4125H66.0496V70.3798H68.532V83.4407H70.6759V90.7469ZM85.7351 74.188C85.7351 75.1284 85.453 75.8618 84.8888 76.3884C84.3246 76.9149 83.6006 77.2723 82.7167 77.4603V77.5732C83.657 77.7048 84.4751 78.0433 85.1709 78.5887C85.8667 79.1153 86.2147 79.9428 86.2147 81.0711C86.2147 81.7105 86.0924 82.3029 85.8479 82.8483C85.6223 83.3937 85.2649 83.8639 84.776 84.2588C84.287 84.6537 83.657 84.964 82.8859 85.1897C82.1149 85.3966 81.184 85.5 80.0932 85.5H73.5769V70.3798H80.065C81.137 70.3798 82.0961 70.502 82.9424 70.7465C83.8075 70.9722 84.4845 71.3671 84.9734 71.9313C85.4812 72.4767 85.7351 73.2289 85.7351 74.188ZM83.6476 81.0711C83.6476 80.206 83.3185 79.5854 82.6603 79.2093C82.0021 78.8332 81.0335 78.6451 79.7547 78.6451H76.0593V83.4971H79.8111C81.0523 83.4971 82.0021 83.3185 82.6603 82.9612C83.3185 82.585 83.6476 81.955 83.6476 81.0711ZM83.2245 74.4983C83.2245 73.7837 82.9612 73.2665 82.4346 72.9468C81.9268 72.6083 81.09 72.4391 79.924 72.4391H76.0593V76.5858H79.4726C80.695 76.5858 81.6259 76.4166 82.2653 76.0781C82.9048 75.7396 83.2245 75.213 83.2245 74.4983ZM95.6696 70.0977C96.9673 70.0977 98.0768 70.3798 98.9984 70.944C99.9387 71.5082 100.653 72.3074 101.142 73.3418C101.65 74.3573 101.904 75.5515 101.904 76.9244V78.4194H91.5511C91.5887 80.1308 92.0212 81.4379 92.8487 82.3406C93.695 83.2244 94.8704 83.6664 96.3749 83.6664C97.334 83.6664 98.1803 83.5818 98.9137 83.4125C99.666 83.2244 100.437 82.9612 101.227 82.6226V84.7948C100.456 85.1333 99.6942 85.3778 98.9419 85.5282C98.1897 85.6975 97.2964 85.7821 96.262 85.7821C94.8328 85.7821 93.5633 85.4906 92.4538 84.9076C91.363 84.3246 90.5073 83.4595 89.8867 82.3123C89.2849 81.1464 88.984 79.7265 88.984 78.0527C88.984 76.3978 89.2567 74.9779 89.8021 73.7931C90.3663 72.6083 91.1467 71.6962 92.1435 71.0568C93.159 70.4174 94.3344 70.0977 95.6696 70.0977ZM95.6414 72.1288C94.4566 72.1288 93.5163 72.5143 92.8205 73.2853C92.1435 74.0376 91.7391 75.0907 91.6075 76.4448H99.3087C99.3087 75.5797 99.177 74.8275 98.9137 74.188C98.6504 73.5486 98.2461 73.0503 97.7007 72.6929C97.1741 72.3168 96.4877 72.1288 95.6414 72.1288ZM116.191 72.4673H111.254V85.5H108.8V72.4673H103.92V70.3798H116.191V72.4673ZM124.733 70.0977C126.031 70.0977 127.14 70.3798 128.062 70.944C129.002 71.5082 129.717 72.3074 130.206 73.3418C130.713 74.3573 130.967 75.5515 130.967 76.9244V78.4194H120.614C120.652 80.1308 121.085 81.4379 121.912 82.3406C122.758 83.2244 123.934 83.6664 125.438 83.6664C126.397 83.6664 127.244 83.5818 127.977 83.4125C128.729 83.2244 129.5 82.9612 130.29 82.6226V84.7948C129.519 85.1333 128.758 85.3778 128.005 85.5282C127.253 85.6975 126.36 85.7821 125.325 85.7821C123.896 85.7821 122.627 85.4906 121.517 84.9076C120.426 84.3246 119.571 83.4595 118.95 82.3123C118.348 81.1464 118.047 79.7265 118.047 78.0527C118.047 76.3978 118.32 74.9779 118.865 73.7931C119.43 72.6083 120.21 71.6962 121.207 71.0568C122.222 70.4174 123.398 70.0977 124.733 70.0977ZM124.705 72.1288C123.52 72.1288 122.58 72.5143 121.884 73.2853C121.207 74.0376 120.802 75.0907 120.671 76.4448H128.372C128.372 75.5797 128.24 74.8275 127.977 74.188C127.714 73.5486 127.309 73.0503 126.764 72.6929C126.237 72.3168 125.551 72.1288 124.705 72.1288Z" fill="#0D0D0D"/>
</svg>
